<svg width="557" height="140" viewBox="0 0 557 140" fill="none" xmlns="http://www.w3.org/2000/svg">
<g clip-path="url(#clip0_70_107)">
<mask id="path-1-outside-1_70_107" maskUnits="userSpaceOnUse" x="4" y="4" width="549" height="132" fill="black">
<rect fill="white" x="4" y="4" width="549" height="132"/>
<path d="M5.455 5.49999H94.875V26.24H28.32V58.965H73.625V79.705H28.32V133H5.455V5.49999ZM108.28 5.49999H129.955V133H108.28V5.49999ZM191.114 134.7C165.019 134.7 144.534 115.915 144.534 88.63C144.534 61.43 165.019 42.645 191.114 42.645C217.209 42.645 237.779 61.43 237.779 88.63C237.779 115.915 217.209 134.7 191.114 134.7ZM191.114 116.255C205.479 116.255 214.914 104.95 214.914 88.63C214.914 72.395 205.479 61.175 191.114 61.175C176.834 61.175 167.314 72.395 167.314 88.63C167.314 104.95 176.834 116.255 191.114 116.255ZM321.401 88.63C321.401 72.31 311.116 61.175 296.156 61.175C281.111 61.175 270.741 72.395 270.741 88.63C270.741 104.95 281.111 116.255 296.156 116.255C311.116 116.255 321.401 105.035 321.401 88.63ZM247.961 88.63C247.961 61.94 265.301 42.645 289.356 42.645C303.126 42.645 314.516 49.53 321.401 60.75V5.49999H343.161V133H322.081V115.405C315.281 127.39 303.636 134.7 289.356 134.7C265.301 134.7 247.961 115.405 247.961 88.63ZM402.618 134.7C376.523 134.7 356.038 115.915 356.038 88.63C356.038 61.43 376.523 42.645 402.618 42.645C428.713 42.645 449.283 61.43 449.283 88.63C449.283 115.915 428.713 134.7 402.618 134.7ZM402.618 116.255C416.983 116.255 426.418 104.95 426.418 88.63C426.418 72.395 416.983 61.175 402.618 61.175C388.338 61.175 378.818 72.395 378.818 88.63C378.818 104.95 388.338 116.255 402.618 116.255ZM463.545 5.49999H485.22V85.57L519.135 44.345H546.93L507.83 87.44L550.415 133H521.345L485.22 91.52V133H463.545V5.49999Z"/>
</mask>
<path d="M5.455 5.49999H94.875V26.24H28.32V58.965H73.625V79.705H28.32V133H5.455V5.49999ZM108.28 5.49999H129.955V133H108.28V5.49999ZM191.114 134.7C165.019 134.7 144.534 115.915 144.534 88.63C144.534 61.43 165.019 42.645 191.114 42.645C217.209 42.645 237.779 61.43 237.779 88.63C237.779 115.915 217.209 134.7 191.114 134.7ZM191.114 116.255C205.479 116.255 214.914 104.95 214.914 88.63C214.914 72.395 205.479 61.175 191.114 61.175C176.834 61.175 167.314 72.395 167.314 88.63C167.314 104.95 176.834 116.255 191.114 116.255ZM321.401 88.63C321.401 72.31 311.116 61.175 296.156 61.175C281.111 61.175 270.741 72.395 270.741 88.63C270.741 104.95 281.111 116.255 296.156 116.255C311.116 116.255 321.401 105.035 321.401 88.63ZM247.961 88.63C247.961 61.94 265.301 42.645 289.356 42.645C303.126 42.645 314.516 49.53 321.401 60.75V5.49999H343.161V133H322.081V115.405C315.281 127.39 303.636 134.7 289.356 134.7C265.301 134.7 247.961 115.405 247.961 88.63ZM402.618 134.7C376.523 134.7 356.038 115.915 356.038 88.63C356.038 61.43 376.523 42.645 402.618 42.645C428.713 42.645 449.283 61.43 449.283 88.63C449.283 115.915 428.713 134.7 402.618 134.7ZM402.618 116.255C416.983 116.255 426.418 104.95 426.418 88.63C426.418 72.395 416.983 61.175 402.618 61.175C388.338 61.175 378.818 72.395 378.818 88.63C378.818 104.95 388.338 116.255 402.618 116.255ZM463.545 5.49999H485.22V85.57L519.135 44.345H546.93L507.83 87.44L550.415 133H521.345L485.22 91.52V133H463.545V5.49999Z" fill="url(#paint0_linear_70_107)"/>
<path d="M5.455 5.49999V4.49998H4.455V5.49999H5.455ZM94.875 5.49999H95.875V4.49998H94.875V5.49999ZM94.875 26.24V27.24H95.875V26.24H94.875ZM28.32 26.24V25.24H27.32V26.24H28.32ZM28.32 58.965H27.32V59.965H28.32V58.965ZM73.625 58.965H74.625V57.965H73.625V58.965ZM73.625 79.705V80.705H74.625V79.705H73.625ZM28.32 79.705V78.705H27.32V79.705H28.32ZM28.32 133V134H29.32V133H28.32ZM5.455 133H4.455V134H5.455V133ZM5.455 5.49999V6.49999H94.875V5.49999V4.49998H5.455V5.49999ZM94.875 5.49999H93.875V26.24H94.875H95.875V5.49999H94.875ZM94.875 26.24V25.24H28.32V26.24V27.24H94.875V26.24ZM28.32 26.24H27.32V58.965H28.32H29.32V26.24H28.32ZM28.32 58.965V59.965H73.625V58.965V57.965H28.32V58.965ZM73.625 58.965H72.625V79.705H73.625H74.625V58.965H73.625ZM73.625 79.705V78.705H28.32V79.705V80.705H73.625V79.705ZM28.32 79.705H27.32V133H28.32H29.32V79.705H28.32ZM28.32 133V132H5.455V133V134H28.32V133ZM5.455 133H6.455V5.49999H5.455H4.455V133H5.455ZM108.28 5.49999V4.49998H107.28V5.49999H108.28ZM129.955 5.49999H130.955V4.49998H129.955V5.49999ZM129.955 133V134H130.955V133H129.955ZM108.28 133H107.28V134H108.28V133ZM108.28 5.49999V6.49999H129.955V5.49999V4.49998H108.28V5.49999ZM129.955 5.49999H128.955V133H129.955H130.955V5.49999H129.955ZM129.955 133V132H108.28V133V134H129.955V133ZM108.28 133H109.28V5.49999H108.28H107.28V133H108.28ZM191.114 134.7V133.7C165.539 133.7 145.534 115.331 145.534 88.63H144.534H143.534C143.534 116.499 164.498 135.7 191.114 135.7V134.7ZM144.534 88.63H145.534C145.534 62.0148 165.538 43.645 191.114 43.645V42.645V41.645C164.499 41.645 143.534 60.8452 143.534 88.63H144.534ZM191.114 42.645V43.645C216.692 43.645 236.779 62.0172 236.779 88.63H237.779H238.779C238.779 60.8428 217.725 41.645 191.114 41.645V42.645ZM237.779 88.63H236.779C236.779 115.329 216.691 133.7 191.114 133.7V134.7V135.7C217.727 135.7 238.779 116.501 238.779 88.63H237.779ZM191.114 116.255V117.255C198.578 117.255 204.81 114.308 209.161 109.212C213.5 104.129 215.914 96.9774 215.914 88.63H214.914H213.914C213.914 96.6026 211.61 103.263 207.64 107.913C203.682 112.549 198.014 115.255 191.114 115.255V116.255ZM214.914 88.63H215.914C215.914 80.3238 213.499 73.2133 209.159 68.1626C204.807 63.0983 198.576 60.175 191.114 60.175V61.175V62.175C198.017 62.175 203.685 64.8617 207.642 69.4661C211.611 74.0842 213.914 80.7012 213.914 88.63H214.914ZM191.114 61.175V60.175C183.693 60.175 177.462 63.0992 173.101 68.1617C168.751 73.2113 166.314 80.3215 166.314 88.63H167.314H168.314C168.314 80.7034 170.637 74.0862 174.616 69.4671C178.585 64.8608 184.254 62.175 191.114 62.175V61.175ZM167.314 88.63H166.314C166.314 96.9796 168.75 104.131 173.099 109.213C177.459 114.307 183.69 117.255 191.114 117.255V116.255V115.255C184.257 115.255 178.588 112.55 174.618 107.912C170.637 103.261 168.314 96.6004 168.314 88.63H167.314ZM321.401 60.75L320.549 61.273L322.401 64.2916V60.75H321.401ZM321.401 5.49999V4.49998H320.401V5.49999H321.401ZM343.161 5.49999H344.161V4.49998H343.161V5.49999ZM343.161 133V134H344.161V133H343.161ZM322.081 133H321.081V134H322.081V133ZM322.081 115.405H323.081V111.616L321.212 114.912L322.081 115.405ZM321.401 88.63H322.401C322.401 80.2599 319.762 73.1415 315.125 68.1052C310.481 63.0622 303.897 60.175 296.156 60.175V61.175V62.175C303.376 62.175 309.414 64.8553 313.653 69.4598C317.899 74.071 320.401 80.6801 320.401 88.63H321.401ZM296.156 61.175V60.175C288.373 60.175 281.747 63.0835 277.073 68.1352C272.404 73.1808 269.741 80.2991 269.741 88.63H270.741H271.741C271.741 80.7259 274.263 74.1167 278.541 69.4935C282.813 64.8764 288.895 62.175 296.156 62.175V61.175ZM270.741 88.63H269.741C269.741 97.0019 272.403 104.162 277.071 109.239C281.744 114.323 288.37 117.255 296.156 117.255V116.255V115.255C288.897 115.255 282.816 112.534 278.543 107.886C274.264 103.231 271.741 96.5781 271.741 88.63H270.741ZM296.156 116.255V117.255C303.899 117.255 310.484 114.345 315.127 109.269C319.762 104.201 322.401 97.0411 322.401 88.63H321.401H320.401C320.401 96.6239 317.898 103.276 313.651 107.919C309.411 112.555 303.373 115.255 296.156 115.255V116.255ZM247.961 88.63H248.961C248.961 62.3903 265.95 43.645 289.356 43.645V42.645V41.645C264.652 41.645 246.961 61.4897 246.961 88.63H247.961ZM289.356 42.645V43.645C302.761 43.645 313.836 50.3337 320.549 61.273L321.401 60.75L322.254 60.227C315.196 48.7263 303.492 41.645 289.356 41.645V42.645ZM321.401 60.75H322.401V5.49999H321.401H320.401V60.75H321.401ZM321.401 5.49999V6.49999H343.161V5.49999V4.49998H321.401V5.49999ZM343.161 5.49999H342.161V133H343.161H344.161V5.49999H343.161ZM343.161 133V132H322.081V133V134H343.161V133ZM322.081 133H323.081V115.405H322.081H321.081V133H322.081ZM322.081 115.405L321.212 114.912C314.579 126.601 303.257 133.7 289.356 133.7V134.7V135.7C304.016 135.7 315.983 128.179 322.951 115.898L322.081 115.405ZM289.356 134.7V133.7C265.952 133.7 248.961 114.956 248.961 88.63H247.961H246.961C246.961 115.854 264.651 135.7 289.356 135.7V134.7ZM402.617 134.7V133.7C377.043 133.7 357.038 115.331 357.038 88.63H356.038H355.038C355.038 116.499 376.002 135.7 402.617 135.7V134.7ZM356.038 88.63H357.038C357.038 62.0148 377.042 43.645 402.617 43.645V42.645V41.645C376.003 41.645 355.038 60.8452 355.038 88.63H356.038ZM402.617 42.645V43.645C428.196 43.645 448.283 62.0172 448.283 88.63H449.283H450.283C450.283 60.8428 429.229 41.645 402.617 41.645V42.645ZM449.283 88.63H448.283C448.283 115.329 428.194 133.7 402.617 133.7V134.7V135.7C429.231 135.7 450.283 116.501 450.283 88.63H449.283ZM402.617 116.255V117.255C410.082 117.255 416.314 114.308 420.665 109.212C425.004 104.129 427.418 96.9774 427.418 88.63H426.418H425.418C425.418 96.6026 423.114 103.263 419.144 107.913C415.186 112.549 409.518 115.255 402.617 115.255V116.255ZM426.418 88.63H427.418C427.418 80.3238 425.003 73.2133 420.663 68.1626C416.311 63.0983 410.08 60.175 402.617 60.175V61.175V62.175C409.52 62.175 415.189 64.8617 419.146 69.4661C423.114 74.0842 425.418 80.7012 425.418 88.63H426.418ZM402.617 61.175V60.175C395.197 60.175 388.966 63.0992 384.605 68.1617C380.254 73.2113 377.818 80.3215 377.818 88.63H378.818H379.818C379.818 80.7034 382.141 74.0862 386.12 69.4671C390.089 64.8608 395.758 62.175 402.617 62.175V61.175ZM378.818 88.63H377.818C377.818 96.9796 380.254 104.131 384.603 109.213C388.963 114.307 395.194 117.255 402.617 117.255V116.255V115.255C395.761 115.255 390.092 112.55 386.122 107.912C382.141 103.261 379.818 96.6004 379.818 88.63H378.818ZM463.545 5.49999V4.49998H462.545V5.49999H463.545ZM485.22 5.49999H486.22V4.49998H485.22V5.49999ZM485.22 85.57H484.22V88.3596L485.992 86.2053L485.22 85.57ZM519.135 44.345V43.345H518.663L518.363 43.7097L519.135 44.345ZM546.93 44.345L547.671 45.0169L549.188 43.345H546.93V44.345ZM507.83 87.44L507.09 86.7681L506.471 87.4501L507.1 88.1228L507.83 87.44ZM550.415 133V134H552.719L551.146 132.317L550.415 133ZM521.345 133L520.591 133.657L520.89 134H521.345V133ZM485.22 91.52L485.974 90.8632L484.22 88.8491V91.52H485.22ZM485.22 133V134H486.22V133H485.22ZM463.545 133H462.545V134H463.545V133ZM463.545 5.49999V6.49999H485.22V5.49999V4.49998H463.545V5.49999ZM485.22 5.49999H484.22V85.57H485.22H486.22V5.49999H485.22ZM485.22 85.57L485.992 86.2053L519.907 44.9803L519.135 44.345L518.363 43.7097L484.448 84.9347L485.22 85.57ZM519.135 44.345V45.345H546.93V44.345V43.345H519.135V44.345ZM546.93 44.345L546.19 43.673L507.09 86.7681L507.83 87.44L508.571 88.1119L547.671 45.0169L546.93 44.345ZM507.83 87.44L507.1 88.1228L549.685 133.683L550.415 133L551.146 132.317L508.561 86.7571L507.83 87.44ZM550.415 133V132H521.345V133V134H550.415V133ZM521.345 133L522.099 132.343L485.974 90.8632L485.22 91.52L484.466 92.1768L520.591 133.657L521.345 133ZM485.22 91.52H484.22V133H485.22H486.22V91.52H485.22ZM485.22 133V132H463.545V133V134H485.22V133ZM463.545 133H464.545V5.49999H463.545H462.545V133H463.545Z" fill="white" mask="url(#path-1-outside-1_70_107)"/>
</g>
<defs>
<linearGradient id="paint0_linear_70_107" x1="278" y1="77" x2="278" y2="161.5" gradientUnits="userSpaceOnUse">
<stop stop-color="white"/>
<stop offset="1" stop-color="#999999"/>
</linearGradient>
<clipPath id="clip0_70_107">
<rect width="557" height="140" fill="white"/>
</clipPath>
</defs>
</svg>
