<svg width="512" height="512" viewBox="0 0 512 512" fill="none" xmlns="http://www.w3.org/2000/svg">
<path d="M115.445 141.373C115.265 104.834 124.224 74.9164 146.706 52.2388C164.741 34.0466 180.586 31.5957 202.361 31.4304L382.835 31.3762L444.012 31.36C452.92 31.3565 467.064 30.774 475.676 31.4979C474.408 64.3747 467.053 90.7146 448.228 113.34C438.052 125.622 425.715 134.292 412.359 138.549C398.035 142.971 367.111 141.605 350.954 141.58L261.505 141.552C267.57 147.179 279.717 155.263 286.564 160.152L329.572 190.906C336.15 195.631 344.772 201.415 351.06 206.457C346.252 207.456 332.869 207.014 327.31 206.991L282.332 206.858L230.052 206.948C224.853 206.96 211.09 207.504 206.435 206.944C203.059 203.651 187.93 193.384 183.656 190.338L139.656 158.943C132.565 153.889 122.08 146.953 115.445 141.373Z" fill="#FEFEFE"/>
<path d="M115.447 141.374C158.981 142.075 202.607 141.171 246.153 141.501C251.146 141.539 256.546 141.223 261.507 141.553C267.572 147.18 279.719 155.264 286.567 160.152L329.574 190.907C336.152 195.632 344.775 201.415 351.062 206.458C346.254 207.457 332.871 207.014 327.313 206.992L282.334 206.859L230.054 206.948C224.855 206.96 211.092 207.505 206.437 206.945C203.061 203.652 187.932 193.384 183.659 190.338L139.658 158.944C132.567 153.89 122.082 146.953 115.447 141.374Z" fill="url(#paint0_linear_70_88)"/>
<path d="M351.06 206.458L351.927 207.094C354.511 219.877 346.179 250.31 341.186 261.973C330.201 287.468 312 306.033 290.654 313.511C276.643 318.442 261.743 317.218 247.235 317.197L207.503 317.148L69.5635 317.225C70.8579 284.464 78.1196 257.647 96.9943 235.363C120.456 207.66 140.379 207.026 169.201 207.014L206.436 206.944C211.09 207.504 224.854 206.96 230.053 206.948L282.333 206.859L327.311 206.992C332.869 207.014 346.252 207.457 351.06 206.458Z" fill="#FEFEFE"/>
<path d="M138.292 373.618L219.922 373.543C219.581 432.629 175.397 478.893 115.935 480.748C112.969 480.844 109.968 480.783 107 480.762L25.9463 480.865C26.6403 439.734 47.3271 404.585 84.1443 385.439C102.809 375.74 117.69 374.049 138.292 373.618Z" fill="white"/>
<defs>
<linearGradient id="paint0_linear_70_88" x1="233.255" y1="141.374" x2="233.255" y2="207.197" gradientUnits="userSpaceOnUse">
<stop stop-color="#858585"/>
<stop offset="1" stop-color="white"/>
</linearGradient>
</defs>
</svg>
