<svg width="428" height="428" viewBox="0 0 428 428" fill="none" xmlns="http://www.w3.org/2000/svg">
<path d="M377.564 189.53C372.722 189.53 370.899 165.957 375.744 165.58C349.553 168.367 322.662 172.651 304.382 169.747C297.965 177.661 292.729 186.464 288.838 195.882C286.368 187.017 285.47 177.788 286.183 168.614C282.706 168.331 244.758 143.169 228.779 133.823C225.315 136.167 222.364 139.189 220.105 142.708C217.843 146.227 216.323 150.168 215.631 154.292L271.631 188.361L276.041 182.009C275.011 184.546 274.434 187.243 274.338 189.979C274.176 195.481 275.956 203.53 282.589 217.66C289.062 219.602 299.623 216.608 307.672 211.956C307.308 206.899 309.776 200.709 311.637 195.532C310.208 194.486 308.707 193.54 307.146 192.701C330.879 194.263 353.211 192.494 377.564 189.53Z" fill="url(#paint0_linear_85_30317)"/>
<path d="M180.268 226.708C167.967 225.745 155.626 225.407 143.292 225.696C144.062 223.075 144.524 220.373 144.668 217.645C134.554 220.275 124.763 220.356 111.738 218.497V218.335C105.687 222.338 100.404 236.532 104.198 246.966L93.6945 269.149L63.7586 250.049C54.7368 255.672 50.2056 262.874 46.8882 273.918L84.6322 299.768C87.1641 301.506 90.0353 302.687 93.0565 303.235C96.078 303.784 99.1812 303.686 102.162 302.947C105.143 302.21 107.934 300.85 110.351 298.955C112.768 297.062 114.757 294.677 116.186 291.96L128.242 269.023L113.026 257.401C115.258 258.705 117.654 259.701 120.151 260.365C132.571 263.804 150.734 262.429 162.95 260.932C159.357 275.224 156.549 289.701 154.537 304.299C162.24 309.482 171.633 311.522 180.791 310.004C187.634 290.827 193.415 271.289 198.109 251.476C198.81 248.656 198.888 245.718 198.339 242.865C197.79 240.014 196.626 237.314 194.928 234.956C193.23 232.599 191.039 230.64 188.507 229.216C185.975 227.791 183.164 226.935 180.268 226.708Z" fill="url(#paint1_linear_85_30317)"/>
<path d="M357.419 101.215C357.114 100.908 356.752 100.665 356.352 100.498C355.954 100.332 355.526 100.246 355.092 100.246C354.659 100.246 354.231 100.332 353.833 100.498C353.433 100.665 353.071 100.908 352.766 101.215L351.915 102.067L351.063 101.215C350.445 100.598 349.609 100.252 348.736 100.252C347.863 100.252 347.026 100.599 346.408 101.216C345.793 101.834 345.446 102.671 345.446 103.543C345.446 104.416 345.793 105.253 346.41 105.87L351.947 111.372L357.408 105.87C357.717 105.566 357.962 105.204 358.13 104.805C358.296 104.406 358.383 103.978 358.383 103.545C358.386 103.112 358.3 102.683 358.134 102.283C357.968 101.883 357.725 101.521 357.419 101.215Z" fill="url(#paint2_linear_85_30317)"/>
<path d="M125.775 337.876L120.151 337.027L117.643 331.969L115.135 337.027L109.513 337.876L113.599 341.8L112.628 347.383L117.643 344.754L122.659 347.383L121.689 341.8L125.775 337.876Z" fill="url(#paint3_linear_85_30317)"/>
<path d="M294.754 160.555L290.495 164.6C290.889 163.477 291.134 162.308 291.223 161.121C292.418 161.064 293.602 160.874 294.754 160.555Z" fill="#4075ED"/>
<path d="M312.474 192.969C312.19 193.778 311.907 194.628 311.583 195.524C310.155 194.477 308.654 193.531 307.093 192.692C308.913 192.767 310.693 192.888 312.474 192.969Z" fill="#4075ED"/>
<path d="M345.403 125.813C338.777 120.311 320.808 135.765 320.808 135.765C324.123 119.421 299.851 133.423 291.679 141.389C295.886 138.031 299.244 145.311 298.88 149.437C298.88 150.411 299.406 150.613 300.903 149.561C304.018 147.295 306.243 152.676 300.377 155.182C299.983 155.608 299.693 156.118 299.525 156.673C298.45 159.726 298.38 163.043 299.323 166.14C326.55 160.565 351.998 131.275 345.403 125.813Z" fill="#4075ED"/>
<path d="M298.637 249.928L295.401 252.719L292.569 240.703L298.637 249.928Z" fill="#4075ED"/>
<path d="M209.758 61.6507C206.516 61.6507 203.346 62.6123 200.649 64.4139C197.953 66.2155 195.852 68.7759 194.611 71.7719C193.37 74.7678 193.045 78.0644 193.678 81.2449C194.31 84.4252 195.872 87.3468 198.165 89.6397C200.458 91.9327 203.379 93.4941 206.56 94.1267C209.74 94.7596 213.037 94.4349 216.033 93.1939C219.029 91.9529 221.589 89.8513 223.39 87.1552C225.192 84.4589 226.154 81.289 226.154 78.0463C226.158 75.8921 225.737 73.7583 224.915 71.7674C224.091 69.7763 222.883 67.9672 221.361 66.4441C219.836 64.9208 218.029 63.7133 216.038 62.8908C214.047 62.0682 211.913 61.6468 209.758 61.6507ZM210.163 88.0284C210.163 88.1357 210.12 88.2386 210.045 88.3146C209.969 88.3904 209.866 88.433 209.758 88.433C209.704 88.4362 209.65 88.4277 209.6 88.4085C209.549 88.3893 209.504 88.3595 209.465 88.3214C209.427 88.2831 209.398 88.2373 209.378 88.1868C209.359 88.1364 209.351 88.0823 209.354 88.0284V75.325C209.354 75.2179 209.397 75.1153 209.473 75.0395C209.549 74.9639 209.651 74.9211 209.758 74.9205C209.812 74.9173 209.866 74.9258 209.917 74.9449C209.967 74.9641 210.013 74.9939 210.051 75.032C210.089 75.0704 210.119 75.1161 210.138 75.1666C210.158 75.2171 210.166 75.2712 210.163 75.325V88.0284ZM208.626 69.1777C208.638 68.8805 208.765 68.5996 208.98 68.3939C209.195 68.188 209.481 68.0733 209.779 68.0733C210.076 68.0733 210.362 68.188 210.577 68.3939C210.792 68.5996 210.919 68.8805 210.932 69.1777C210.919 69.475 210.792 69.7558 210.577 69.9615C210.362 70.1674 210.076 70.2822 209.779 70.2822C209.481 70.2822 209.195 70.1674 208.98 69.9615C208.765 69.7558 208.638 69.475 208.626 69.1777Z" fill="#4075ED"/>
<path d="M112.788 257.25L128.243 269.023L131.843 262.226C125.193 262.056 118.673 260.353 112.788 257.25Z" fill="#4075ED"/>
<path d="M126.138 168.088L121.284 164.813C122.679 164.981 124.087 165.035 125.491 164.975C125.602 166.032 125.819 167.075 126.138 168.088Z" fill="#4075ED"/>
<path d="M275.984 182.005C274.953 184.541 274.376 187.239 274.28 189.975L271.57 188.316L275.984 182.005Z" fill="#4075ED"/>
<path d="M146.853 182.288C147.213 184.052 147.47 185.835 147.621 187.629C148.39 187.265 149.239 186.819 150.089 186.374L146.853 182.288Z" fill="#4075ED"/>
<path d="M157.895 307.617C156.967 310.287 155.791 312.957 154.984 315.301C155.612 317.993 156.591 320.591 157.895 323.029C161.981 330.594 166.067 345.442 169.304 349.164C171.084 343.864 172.985 330.556 174.24 323.069C167.925 318.919 162.392 313.689 157.895 307.617Z" fill="#4075ED"/>
<path d="M50.2057 246.853C47.4459 246.732 44.6825 246.991 41.993 247.622C33.578 249.563 18.1661 249.563 13.7563 251.708C18.3684 254.863 30.7056 260.244 37.5832 263.4C43.2689 258.385 49.8039 254.425 56.881 251.708C54.4941 250.089 52.2285 248.269 50.2057 246.853Z" fill="#4075ED"/>
<path d="M122.093 142.243C120.758 140.058 117.834 140.179 118.128 141.838C116.31 140.22 113.154 140.986 113.516 142.849C111.334 141.069 108.785 142.485 109.309 144.184C107.409 142.728 105.346 144.184 105.993 145.924C103.283 144.751 101.017 146.776 104.213 149.97C105.589 151.345 111.574 155.793 114.932 161.417C115.139 160.608 115.12 159.758 114.877 158.959C114.635 158.161 114.178 157.443 113.557 156.886C110.239 154.377 112.505 151.386 114.609 153.447C116.47 155.267 115.865 152.595 114.528 150.21C114.805 150.449 115.137 150.615 115.495 150.691C115.853 150.768 116.224 150.753 116.575 150.649C116.925 150.544 117.244 150.353 117.501 150.093C117.759 149.833 117.946 149.512 118.047 149.161C118.313 149.361 118.618 149.501 118.943 149.571C119.268 149.641 119.605 149.64 119.929 149.567C120.253 149.493 120.558 149.351 120.821 149.148C121.085 148.945 121.301 148.687 121.454 148.392C122.945 149.442 124.974 148.797 125.055 147.219C124.156 145.677 123.145 143.978 122.093 142.243Z" fill="#4075ED"/>
<path d="M111.581 196.284L108.63 200.087C108.225 198.511 107.821 196.972 107.375 195.477C108.745 195.72 111.581 196.284 111.581 196.284Z" fill="#4075ED"/>
<path d="M70.3105 186.293C70.2964 186.649 70.1456 186.985 69.8893 187.231C69.6331 187.477 69.2914 187.615 68.936 187.615C68.5806 187.615 68.2389 187.477 67.9827 187.231C67.7265 186.985 67.5756 186.649 67.5615 186.293C67.5756 185.938 67.7265 185.602 67.9827 185.356C68.2389 185.11 68.5806 184.972 68.936 184.972C69.2914 184.972 69.6331 185.11 69.8893 185.356C70.1456 185.602 70.2964 185.938 70.3105 186.293Z" fill="#4075ED"/>
<path d="M88.7589 174.157C88.7589 174.521 88.6141 174.871 88.356 175.129C88.0981 175.387 87.7481 175.532 87.3833 175.532C87.0186 175.532 86.6687 175.387 86.4107 175.129C86.1528 174.871 86.0078 174.521 86.0078 174.157C86.0078 173.792 86.1528 173.442 86.4107 173.184C86.6687 172.926 87.0186 172.781 87.3833 172.781C87.7481 172.781 88.0981 172.926 88.356 173.184C88.6141 173.442 88.7589 173.792 88.7589 174.157Z" fill="#4075ED"/>
<path d="M106.439 187.669C106.439 188.034 106.294 188.384 106.036 188.642C105.778 188.899 105.428 189.045 105.063 189.045C104.698 189.045 104.348 188.899 104.09 188.642C103.833 188.384 103.688 188.034 103.688 187.669C103.688 187.304 103.833 186.954 104.09 186.696C104.348 186.438 104.698 186.293 105.063 186.293C105.428 186.293 105.778 186.438 106.036 186.696C106.294 186.954 106.439 187.304 106.439 187.669Z" fill="#4075ED"/>
<path d="M130.548 191.512C130.548 191.877 130.403 192.227 130.146 192.485C129.887 192.743 129.538 192.888 129.173 192.888C128.808 192.888 128.458 192.743 128.2 192.485C127.942 192.227 127.797 191.877 127.797 191.512C127.797 191.148 127.942 190.798 128.2 190.54C128.458 190.282 128.808 190.137 129.173 190.137C129.538 190.137 129.887 190.282 130.146 190.54C130.403 190.798 130.548 191.148 130.548 191.512Z" fill="#4075ED"/>
<path d="M143.094 170.475C143.094 170.84 142.949 171.189 142.691 171.448C142.433 171.705 142.084 171.85 141.719 171.85C141.354 171.85 141.004 171.705 140.746 171.448C140.488 171.189 140.343 170.84 140.343 170.475C140.343 170.11 140.488 169.76 140.746 169.502C141.004 169.244 141.354 169.099 141.719 169.099C142.084 169.099 142.433 169.244 142.691 169.502C142.949 169.76 143.094 170.11 143.094 170.475Z" fill="#4075ED"/>
<path d="M166.553 170.192C166.553 170.556 166.408 170.906 166.15 171.164C165.892 171.422 165.542 171.567 165.177 171.567C164.813 171.567 164.463 171.422 164.205 171.164C163.947 170.906 163.802 170.556 163.802 170.192C163.802 169.827 163.947 169.477 164.205 169.219C164.463 168.961 164.813 168.816 165.177 168.816C165.542 168.816 165.892 168.961 166.15 169.219C166.408 169.477 166.553 169.827 166.553 170.192Z" fill="#4075ED"/>
<path d="M174.483 151.543C174.483 151.908 174.338 152.258 174.08 152.516C173.822 152.774 173.472 152.919 173.107 152.919C172.742 152.919 172.392 152.774 172.134 152.516C171.876 152.258 171.731 151.908 171.731 151.543C171.731 151.179 171.876 150.829 172.134 150.571C172.392 150.313 172.742 150.168 173.107 150.168C173.472 150.168 173.822 150.313 174.08 150.571C174.338 150.829 174.483 151.179 174.483 151.543Z" fill="#4075ED"/>
<path d="M120.394 210.404C120.394 210.768 120.249 211.118 119.991 211.376C119.733 211.634 119.383 211.779 119.018 211.779C118.653 211.779 118.304 211.634 118.045 211.376C117.788 211.118 117.643 210.768 117.643 210.404C117.643 210.039 117.788 209.689 118.045 209.431C118.304 209.173 118.653 209.028 119.018 209.028C119.383 209.028 119.733 209.173 119.991 209.431C120.249 209.689 120.394 210.039 120.394 210.404Z" fill="#4075ED"/>
<path d="M141.714 209.028C141.714 209.393 141.569 209.743 141.312 210.001C141.054 210.259 140.704 210.404 140.339 210.404C139.974 210.404 139.624 210.259 139.366 210.001C139.108 209.743 138.963 209.393 138.963 209.028C138.963 208.663 139.108 208.313 139.366 208.055C139.624 207.797 139.974 207.652 140.339 207.652C140.704 207.652 141.054 207.797 141.312 208.055C141.569 208.313 141.714 208.663 141.714 209.028Z" fill="#4075ED"/>
<path d="M378.252 167.926C376.836 168.007 374.328 168.128 373.761 168.169C374.813 164.813 376.678 164.771 378.252 167.926Z" fill="#4075ED"/>
<path d="M379.547 187.345C378.535 190.096 376.876 190.218 375.46 187.669C376.634 187.597 378.05 187.467 379.547 187.345Z" fill="#4075ED"/>
<path d="M230.715 141.391C230.715 141.756 230.57 142.105 230.312 142.363C230.055 142.621 229.704 142.766 229.339 142.766C228.975 142.766 228.624 142.621 228.366 142.363C228.109 142.105 227.964 141.756 227.964 141.391C227.964 141.026 228.109 140.676 228.366 140.418C228.624 140.16 228.975 140.015 229.339 140.015C229.704 140.015 230.055 140.16 230.312 140.418C230.57 140.676 230.715 141.026 230.715 141.391Z" fill="#4075ED"/>
<path d="M368.785 173.226C368.77 173.581 368.621 173.917 368.363 174.164C368.108 174.41 367.765 174.547 367.412 174.547C367.056 174.547 366.713 174.41 366.458 174.164C366.2 173.917 366.051 173.581 366.036 173.226C366.051 172.871 366.2 172.535 366.458 172.288C366.713 172.042 367.056 171.905 367.412 171.905C367.765 171.905 368.108 172.042 368.363 172.288C368.621 172.535 368.77 172.871 368.785 173.226Z" fill="#4075ED"/>
<path d="M336.462 263.926C336.449 261.601 336.315 259.277 336.058 256.967L347.75 246.125L336.462 263.926Z" fill="#4075ED"/>
<path d="M222.705 318.945C206.901 320.919 190.855 319.215 175.817 313.969" stroke="currentColor" stroke-linecap="round" stroke-linejoin="round"/>
<path d="M303.735 257.651C293.985 280.485 276.273 299.002 253.895 309.757" stroke="currentColor" stroke-linecap="round" stroke-linejoin="round"/>
<path d="M310.208 199.318C311.104 204.153 311.63 209.049 311.786 213.964" stroke="currentColor" stroke-linecap="round" stroke-linejoin="round"/>
<path d="M225.739 116.791C249.351 120.502 270.903 132.404 286.622 150.411" stroke="currentColor" stroke-linecap="round" stroke-linejoin="round"/>
<path d="M201.182 115.901C205.786 115.531 210.409 115.463 215.022 115.699C215.831 115.741 216.681 115.78 217.49 115.861" stroke="currentColor" stroke-linecap="round" stroke-linejoin="round"/>
<path d="M129.011 155.101C144.075 135.653 165.651 122.294 189.775 117.479" stroke="currentColor" stroke-linecap="round" stroke-linejoin="round"/>
<path d="M107.773 222.662C107.608 219.238 107.621 215.808 107.814 212.386C108.008 208.741 108.386 205.109 108.947 201.503" stroke="currentColor" stroke-linecap="round" stroke-linejoin="round"/>
<path d="M154.739 303.692C143.028 296.182 132.966 286.371 125.167 274.849" stroke="currentColor" stroke-linecap="round" stroke-linejoin="round"/>
<path d="M291.234 161.089C292.412 161.053 293.578 160.877 294.713 160.563L290.506 164.568" stroke="currentColor" stroke-linecap="round" stroke-linejoin="round"/>
<path d="M396.66 172.053L404.63 168.412C409.684 166.106 409.74 163.646 403.699 165.58C403.333 165.697 394.354 168.367 392.938 168.573C391.845 168.733 389.957 168.895 389.744 168.169C388.932 165.401 392.299 157.923 389.946 157.165C388.411 156.673 385.787 161.498 384.12 164.973C382.953 167.405 380.926 167.805 378.254 167.926" stroke="currentColor" stroke-linecap="round" stroke-linejoin="round"/>
<path d="M395.203 172.215C395.203 172.215 407.34 170.724 408.149 170.596C414.456 169.679 414.015 172.059 408.635 173.55C403.497 174.972 397.307 176.744 397.307 176.744" stroke="currentColor" stroke-linecap="round" stroke-linejoin="round"/>
<path d="M395.203 176.705C399.185 176.824 403.169 176.716 407.138 176.382C413.487 175.885 412.8 178 407.421 179.335C404.104 180.242 400.722 180.904 397.307 181.317" stroke="currentColor" stroke-linecap="round" stroke-linejoin="round"/>
<path d="M379.546 187.345C379.546 187.345 388.325 186.77 390.025 186.617C393.3 186.319 396.664 185.797 399.937 185.363C401.069 185.212 402.404 185.005 403.942 184.724C409.61 183.66 410.453 181.556 404.023 181.73C400.571 181.813 397.122 181.487 393.747 180.759" stroke="currentColor" stroke-linecap="round" stroke-linejoin="round"/>
<path d="M394.961 170.273C395.576 175.312 394.478 180.411 391.846 184.752" stroke="currentColor" stroke-linecap="round" stroke-linejoin="round"/>
<path d="M390.187 170.192C389.237 172.702 387.777 174.988 385.894 176.903C384.014 178.819 381.757 180.322 379.264 181.317" stroke="currentColor" stroke-linecap="round" stroke-linejoin="round"/>
<path d="M312.499 192.986C312.216 193.795 311.933 194.645 311.609 195.541C309.506 194.125 307.721 193.209 307.119 192.709C308.939 192.784 310.719 192.905 312.499 192.986Z" stroke="currentColor" stroke-linecap="round" stroke-linejoin="round"/>
<path d="M271.574 188.357L275.984 182.005C274.838 184.508 274.242 187.227 274.238 189.979" stroke="currentColor" stroke-linecap="round" stroke-linejoin="round"/>
<path d="M286.183 168.614C287.646 168.614 289.537 167.358 290.512 164.568C290.904 163.445 291.149 162.275 291.24 161.089C287.438 161.129 282.553 159.173 288.085 146.729C289.275 144.055 291.585 139.964 294.456 140.59C297.247 141.201 299.164 146.143 298.927 149.32C298.831 150.685 299.779 150.351 300.901 149.552C304.035 147.312 306.241 152.665 300.375 155.174C299.986 155.602 299.694 156.111 299.523 156.664C298.009 163.052 297.956 168.314 304.378 169.772" stroke="currentColor" stroke-linecap="round" stroke-linejoin="round"/>
<path d="M291.719 141.391C299.891 133.421 324.165 119.423 320.848 135.767C320.848 135.767 338.807 120.315 345.444 125.815C352.044 131.279 326.631 160.565 299.406 166.148" stroke="currentColor" stroke-linecap="round" stroke-linejoin="round"/>
<path d="M377.564 189.53C372.775 189.53 370.897 165.957 375.744 165.58C349.766 168.348 322.826 172.681 304.382 169.747C297.965 177.661 292.729 186.464 288.838 195.882C286.368 187.017 285.47 177.788 286.183 168.614C282.706 168.331 244.758 143.169 228.779 133.823C225.315 136.167 222.364 139.189 220.105 142.708C217.843 146.227 216.323 150.168 215.631 154.292L274.244 189.979C274.229 190.633 274.244 191.319 274.28 192.051C274.581 197.477 276.657 205.204 282.502 217.645C289.731 219.802 300.935 215.831 307.666 211.941C307.24 206.028 310.685 198.569 312.505 192.99C334.269 193.984 355.053 192.26 377.564 189.53Z" stroke="currentColor" stroke-linecap="round" stroke-linejoin="round"/>
<path d="M282.536 217.645L247.583 255.066C241.27 261.809 236.664 269.966 234.154 278.854L221.086 324.526C224.693 327.711 229.016 329.977 233.69 331.126C238.361 332.276 243.244 332.276 247.916 331.126L261.33 282.531C301.027 247.786 294.226 253.724 298.629 249.926L320.273 282.896C321.545 284.829 323.22 286.462 325.184 287.686C327.149 288.909 329.353 289.692 331.65 289.98C333.946 290.269 336.275 290.056 338.481 289.356C340.687 288.657 342.714 287.488 344.424 285.93L385.324 248.59C384.248 243.953 382.096 239.635 379.04 235.985C375.987 232.335 372.113 229.457 367.738 227.583L336.049 256.967C336.049 256.967 330.588 220.922 307.611 211.941" stroke="currentColor" stroke-linecap="round" stroke-linejoin="round"/>
<path d="M295.401 252.719L292.569 240.703L298.637 249.928" stroke="currentColor" stroke-linecap="round" stroke-linejoin="round"/>
<path d="M223.635 326.467C222.04 335.048 219.6 343.449 216.353 351.551C213.272 358.505 210.857 364.733 211.741 365.791C214.837 369.494 225.368 353.499 233.183 349.406C235.044 348.482 236.709 347.205 238.08 345.644C240.825 342.403 239.292 338.645 242.488 331.889" stroke="currentColor" stroke-linecap="round" stroke-linejoin="round"/>
<path d="M383.673 243.616C390.372 237.914 397.396 232.606 404.71 227.719C411.06 223.509 416.441 219.547 416.279 218.212C415.706 213.438 398.159 221.174 389.418 220.437C387.34 220.22 385.24 220.399 383.228 220.963C379.182 222.185 378.656 226.02 372.305 230.025" stroke="currentColor" stroke-linecap="round" stroke-linejoin="round"/>
<path d="M214.775 129.211C214.775 120.268 221.729 103.596 224.444 102.229C224.516 102.196 224.595 102.182 224.672 102.189C224.751 102.196 224.825 102.223 224.891 102.268C224.955 102.314 225.006 102.374 225.04 102.446C225.074 102.517 225.089 102.595 225.083 102.674C224.152 112.226 217.956 128.541 226.593 135.412" stroke="currentColor" stroke-linecap="round" stroke-linejoin="round"/>
<path d="M216.676 150.208C213.561 148.105 209.166 144.459 209.313 140.903C209.72 131.074 209.658 126.46 209.677 122.576C209.692 119.704 211.951 119.621 213.48 124.599C214.822 128.966 216.231 135.118 216.231 135.118" stroke="currentColor" stroke-linecap="round" stroke-linejoin="round"/>
<path d="M223.19 113.999C224.042 112.583 224.964 111.125 225.334 110.522C228.038 106.123 229.124 107.201 228.894 108.014C227.994 111.195 225.82 115.982 225.091 118.935C224.005 123.281 222.157 129.347 225.602 134.509" stroke="currentColor" stroke-linecap="round" stroke-linejoin="round"/>
<path d="M181.886 257.864C181.886 257.864 173.835 259.603 162.952 260.938" stroke="currentColor" stroke-linecap="round" stroke-linejoin="round"/>
<path d="M107.652 222.864C108.704 221.112 110.092 219.585 111.736 218.373V218.535C124.763 220.396 134.554 220.315 144.668 217.684C144.524 220.411 144.062 223.113 143.292 225.734C155.588 225.451 167.913 225.788 180.268 226.746C183.161 226.969 185.97 227.821 188.499 229.244C191.028 230.664 193.217 232.621 194.912 234.976C196.607 237.331 197.767 240.028 198.312 242.877C198.857 245.726 198.773 248.661 198.066 251.476C193.381 271.293 187.601 290.836 180.753 310.014C171.594 311.533 162.2 309.493 154.497 304.31C156.51 289.711 159.319 275.234 162.912 260.942C150.696 262.433 132.535 263.802 120.113 260.376C112.752 258.347 106.751 254.11 104.143 246.904C101.164 238.727 103.847 228.809 107.652 222.864Z" stroke="currentColor" stroke-linecap="round" stroke-linejoin="round"/>
<path d="M143.333 225.777C141.31 225.818 139.328 225.898 137.345 225.979" stroke="currentColor" stroke-linecap="round" stroke-linejoin="round"/>
<path d="M131.809 262.224L116.18 291.96C114.75 294.677 112.762 297.062 110.345 298.955C107.927 300.85 105.136 302.21 102.156 302.947C99.1749 303.686 96.0716 303.784 93.0501 303.235C90.0289 302.687 87.1577 301.506 84.6258 299.768L46.8882 273.918C50.2099 262.861 54.7474 255.655 63.7906 250.03L93.654 269.149L104.173 246.898" stroke="currentColor" stroke-linecap="round" stroke-linejoin="round"/>
<path d="M112.828 257.25L128.242 269.023" stroke="currentColor" stroke-linecap="round" stroke-linejoin="round"/>
<path d="M126.138 168.088L121.284 164.771C122.682 164.927 124.091 164.967 125.495 164.892" stroke="currentColor" stroke-linecap="round" stroke-linejoin="round"/>
<path d="M135.201 169.099C134.473 169.544 133.745 169.951 133.016 170.394C132.226 171.015 131.247 171.35 130.241 171.342C129.235 171.335 128.262 170.986 127.48 170.354C126.24 168.799 125.545 166.88 125.502 164.892C132.009 164.511 132.407 160.135 125.053 147.174C124.976 147.551 124.801 147.902 124.545 148.189C124.288 148.476 123.96 148.691 123.594 148.81C123.228 148.929 122.837 148.949 122.461 148.868C122.084 148.787 121.736 148.607 121.452 148.347C121.307 148.65 121.095 148.916 120.832 149.125C120.569 149.335 120.262 149.482 119.935 149.556C119.607 149.629 119.267 149.628 118.94 149.552C118.612 149.476 118.307 149.327 118.045 149.116C117.944 149.467 117.756 149.788 117.499 150.048C117.242 150.308 116.923 150.499 116.573 150.603C116.222 150.708 115.851 150.723 115.494 150.647C115.136 150.571 114.803 150.406 114.526 150.168C115.901 152.553 116.467 155.223 114.606 153.402C112.503 151.341 110.237 154.373 113.557 156.843C114.178 157.4 114.635 158.117 114.877 158.915C115.12 159.714 115.139 160.564 114.932 161.372C116.852 164.172 117.619 167.603 117.074 170.954C116.71 172.657 114.283 173.988 111.325 173.22C114.853 179.558 122.114 185.399 129.175 182.904C136.945 180.167 135.201 169.099 135.201 169.099Z" stroke="currentColor" stroke-linecap="round" stroke-linejoin="round"/>
<path d="M185.467 135.855C195.46 128.298 195.854 112.319 195.854 100.862C195.854 100.498 196.378 100.01 196.661 100.223C199.188 101.867 202.551 118.903 201.742 127.868" stroke="currentColor" stroke-linecap="round" stroke-linejoin="round"/>
<path d="M196.934 149.44C199.8 148.285 202.175 146.168 203.649 143.452C206.73 136.596 207.808 129.008 206.76 121.565C206.211 118.333 204.533 118.612 203.079 123.507C201.782 127.876 199.761 133.742 199.761 133.742" stroke="currentColor" stroke-linecap="round" stroke-linejoin="round"/>
<path d="M185.299 135.748C188.084 132.341 190.706 126.294 190.584 123.102C190.257 119.524 189.635 115.978 188.723 112.503C188.54 111.651 189.603 110.518 192.688 116.335" stroke="currentColor" stroke-linecap="round" stroke-linejoin="round"/>
<path d="M147.621 187.629C147.47 185.835 147.213 184.052 146.853 182.288L150.042 186.319" stroke="currentColor" stroke-linecap="round" stroke-linejoin="round"/>
<path d="M144.708 217.686H144.749C146.488 207.41 148.39 197.012 147.621 187.629C163.776 179.154 184.309 162.726 197.021 151.543C198.462 150.102 193.414 143.718 192.025 142.081C190.601 140.401 185.031 134.215 183.065 135.199C168.215 147.965 152.204 159.314 135.241 169.099" stroke="currentColor" stroke-linecap="round" stroke-linejoin="round"/>
<path d="M176.667 310.53C175.624 314.658 174.827 318.847 174.28 323.071C167.949 318.926 162.413 313.677 157.936 307.576C158.098 307.223 158.233 306.859 158.34 306.484" stroke="currentColor" stroke-linecap="round" stroke-linejoin="round"/>
<path d="M157.895 323.02C156.591 320.582 155.612 317.984 154.984 315.293C154.296 316.92 153.934 318.666 153.919 320.433C154.428 322.952 155.315 325.379 156.549 327.632C160.716 335.4 164.883 351.663 167.877 351.461C168.322 351.421 168.807 350.571 169.293 349.155C166.108 345.442 162.021 330.594 157.895 323.02Z" stroke="currentColor" stroke-linecap="round" stroke-linejoin="round"/>
<path d="M157.895 307.617C156.967 310.287 155.791 312.957 154.984 315.301C155.612 317.993 156.591 320.591 157.895 323.029C161.981 330.594 166.067 345.442 169.304 349.164C171.084 343.864 172.985 330.556 174.24 323.069C167.925 318.919 162.392 313.689 157.895 307.617Z" stroke="currentColor" stroke-linecap="round" stroke-linejoin="round"/>
<path d="M48.6277 268.78C45.0575 266.766 41.3693 264.969 37.583 263.4C43.2527 258.394 49.7754 254.448 56.8404 251.748C57.9327 252.476 58.0946 252.76 59.1464 253.366" stroke="currentColor" stroke-linecap="round" stroke-linejoin="round"/>
<path d="M45.5531 244.506C42.9881 244.315 40.4089 244.519 37.9068 245.115C29.3299 247.096 12.5021 246.772 11.9293 249.725C11.8484 250.17 12.5361 250.858 13.7498 251.708C18.1596 249.563 33.5715 249.563 42.0269 247.662C44.716 247.03 47.4799 246.77 50.2397 246.895C48.8552 245.79 47.2608 244.977 45.5531 244.506Z" stroke="currentColor" stroke-linecap="round" stroke-linejoin="round"/>
<path d="M50.2057 246.853C47.4459 246.732 44.6825 246.991 41.993 247.622C33.578 249.563 18.1661 249.563 13.7563 251.708C18.3684 254.863 30.7056 260.244 37.5832 263.4C43.2689 258.385 49.8039 254.425 56.8811 251.708C54.4941 250.089 52.2286 248.269 50.2057 246.853Z" stroke="currentColor" stroke-linecap="round" stroke-linejoin="round"/>
<path d="M24.5176 188.964C22.9802 189.49 20.9957 190.092 18.9814 190.703C15.2572 191.828 13.8838 191.148 17.6058 188.6C21.125 186.21 25.0079 184.407 29.1041 183.259" stroke="currentColor" stroke-linecap="round" stroke-linejoin="round"/>
<path d="M32.8094 178.566C31.686 179.663 30.6693 180.865 29.7731 182.154C28.1646 184.564 27.0767 187.283 26.5791 190.137" stroke="currentColor" stroke-linecap="round" stroke-linejoin="round"/>
<path d="M23.1018 185.484C9.62969 190.218 7.93903 188.01 19.2179 182.855C23.5698 180.992 28.1001 179.578 32.739 178.634" stroke="currentColor" stroke-linecap="round" stroke-linejoin="round"/>
<path d="M49.4858 189.042C43.8495 188.727 31.8232 190.829 23.1016 193.727C19.2987 194.981 17.2652 194.153 21.4833 190.976C23.2605 189.647 25.1649 188.498 27.1686 187.546" stroke="currentColor" stroke-linecap="round" stroke-linejoin="round"/>
<path d="M26.1341 180.265C21.6051 181.317 11.2822 181.705 27.3478 176.503C29.8561 175.692 32.884 175.013 35.7224 174.399C35.8827 173.344 35.6981 172.266 35.1964 171.325C33.493 168.471 34.0679 167.313 36.8551 169.019C40.3925 171.426 44.5928 172.67 48.8708 172.579" stroke="currentColor" stroke-linecap="round" stroke-linejoin="round"/>
<path d="M35.7223 174.395C35.7044 175.463 35.9071 176.523 36.3178 177.51C36.7286 178.496 37.3386 179.387 38.1096 180.126C38.8805 180.866 39.7958 181.438 40.7983 181.808C41.8006 182.177 42.8684 182.336 43.935 182.273" stroke="currentColor" stroke-linecap="round" stroke-linejoin="round"/>
<path d="M125.046 147.214C124.965 148.792 122.942 149.44 121.445 148.388C121.292 148.683 121.076 148.941 120.813 149.144C120.55 149.347 120.245 149.49 119.921 149.563C119.596 149.637 119.26 149.638 118.935 149.568C118.609 149.497 118.304 149.357 118.039 149.156C117.937 149.508 117.749 149.828 117.492 150.087C117.234 150.347 116.916 150.538 116.565 150.643C116.215 150.747 115.844 150.762 115.486 150.686C115.129 150.609 114.796 150.444 114.519 150.206C115.854 152.593 116.461 155.265 114.6 153.443C112.496 151.381 110.239 154.365 113.548 156.881C114.17 157.438 114.627 158.155 114.87 158.954C115.113 159.753 115.131 160.604 114.923 161.413C111.568 155.791 105.58 151.341 104.205 149.965C101.011 146.772 103.274 144.747 105.985 145.92C105.346 144.18 107.401 142.726 109.3 144.18C108.774 142.477 111.325 141.065 113.507 142.845C113.143 140.984 116.299 140.215 118.119 141.834C117.836 140.175 120.756 140.049 122.084 142.238C123.149 143.974 125.046 147.214 125.046 147.214Z" stroke="currentColor" stroke-linecap="round" stroke-linejoin="round"/>
<path d="M108.623 200.087L111.58 196.284C110.126 196.003 108.751 195.718 107.375 195.477" stroke="currentColor" stroke-linecap="round" stroke-linejoin="round"/>
<path d="M111.334 173.226C110.808 173.024 85.3562 166.389 49.5989 169.819C47.6598 177.06 47.8818 184.711 50.2377 191.828C69.3575 190.273 88.6019 191.502 107.369 195.475C109.648 202.927 111.112 210.604 111.736 218.371" stroke="currentColor" stroke-linecap="round" stroke-linejoin="round"/>
<path d="M86.2907 126.865C86.3855 127.961 86.1532 129.06 85.6232 130.025C85.093 130.989 84.2892 131.774 83.3129 132.281C82.3366 132.788 81.2317 132.995 80.1383 132.874C79.0447 132.754 78.0114 132.312 77.169 131.604C76.3264 130.897 75.7128 129.955 75.4053 128.899C75.0978 127.842 75.1104 126.719 75.4415 125.67C75.7728 124.62 76.4074 123.693 77.2655 123.004C78.1236 122.316 79.1667 121.897 80.2627 121.801C81.7325 121.678 83.1915 122.141 84.3211 123.09C85.4505 124.038 86.1587 125.395 86.2907 126.865Z" stroke="currentColor" stroke-linecap="round" stroke-linejoin="round"/>
<path d="M308.064 319.754H290.546" stroke="currentColor" stroke-linecap="round" stroke-linejoin="round"/>
<path d="M299.306 328.531V310.975" stroke="currentColor" stroke-linecap="round" stroke-linejoin="round"/>
<path d="M62.3937 168.978C60.4154 176.364 60.7831 184.183 63.4456 191.351" stroke="currentColor" stroke-linecap="round" stroke-linejoin="round"/>
<path d="M175.459 141.591C181.54 145.657 186.491 151.199 189.847 157.699" stroke="currentColor" stroke-linecap="round" stroke-linejoin="round"/>
<path d="M378.252 167.926C376.836 168.007 374.328 168.128 373.761 168.169C374.813 164.813 376.678 164.771 378.252 167.926Z" stroke="currentColor" stroke-linecap="round" stroke-linejoin="round"/>
<path d="M379.547 187.345C378.535 190.096 376.876 190.218 375.46 187.669C376.634 187.597 378.05 187.467 379.547 187.345Z" stroke="currentColor" stroke-linecap="round" stroke-linejoin="round"/>
<path d="M301.712 214.852C318.097 226.35 322.579 240.544 329.463 265.742C329.704 266.621 330.166 267.424 330.805 268.076C331.445 268.725 332.24 269.2 333.115 269.458C333.99 269.713 334.916 269.741 335.804 269.538C336.694 269.334 337.516 268.908 338.193 268.297L376.678 233.423" stroke="currentColor" stroke-linecap="round" stroke-linejoin="round"/>
<path d="M238.078 331.848L252.034 278.369L293.055 242.726" stroke="currentColor" stroke-linecap="round" stroke-linejoin="round"/>
<path d="M133.461 224.118C131.913 226.74 129.825 229.001 127.334 230.753C124.844 232.504 122.009 233.705 119.018 234.273" stroke="currentColor" stroke-linecap="round" stroke-linejoin="round"/>
<path d="M156.722 290.504C160.817 293.457 165.482 295.527 170.42 296.581C175.358 297.632 180.462 297.645 185.405 296.617" stroke="currentColor" stroke-linecap="round" stroke-linejoin="round"/>
<path d="M74.6798 257.012C66.7524 262.352 61.6911 271.01 58.6206 281.925" stroke="currentColor" stroke-linecap="round" stroke-linejoin="round"/>
<path d="M347.75 246.125L336.465 263.926C336.452 261.601 336.318 259.277 336.06 256.967" stroke="currentColor" stroke-linecap="round" stroke-linejoin="round"/>
<path d="M185.48 135.855C191.276 131.485 192.688 124.995 192.89 119.091C192.475 114.961 191.772 110.866 190.786 106.834C190.658 106.025 191.798 105.054 194.104 109.707L195.439 112.611" stroke="currentColor" stroke-linecap="round" stroke-linejoin="round"/>
<path d="M209.758 61.6507C206.516 61.6507 203.346 62.6123 200.649 64.4139C197.953 66.2155 195.852 68.7759 194.611 71.7719C193.37 74.7678 193.045 78.0644 193.678 81.2449C194.31 84.4252 195.872 87.3468 198.165 89.6397C200.458 91.9327 203.379 93.4941 206.56 94.1267C209.74 94.7596 213.037 94.4349 216.033 93.1939C219.029 91.9529 221.589 89.8513 223.39 87.1552C225.192 84.4589 226.154 81.289 226.154 78.0463C226.158 75.8921 225.737 73.7583 224.915 71.7674C224.091 69.7763 222.883 67.9672 221.361 66.4441C219.836 64.9208 218.029 63.7133 216.038 62.8908C214.047 62.0682 211.913 61.6468 209.758 61.6507Z" stroke="currentColor" stroke-linejoin="round"/>
<path d="M208.162 69.1415C208.162 69.5651 208.33 69.9713 208.629 70.2708C208.929 70.5703 209.335 70.7385 209.759 70.7385C210.182 70.7385 210.588 70.5703 210.888 70.2708C211.187 69.9713 211.356 69.5651 211.356 69.1415C211.356 68.718 211.187 68.3118 210.888 68.0123C210.588 67.7128 210.182 67.5446 209.759 67.5446C209.335 67.5446 208.929 67.7128 208.629 68.0123C208.33 68.3118 208.162 68.718 208.162 69.1415Z" stroke="currentColor" stroke-linejoin="round"/>
<path d="M210.54 75.0631C210.54 74.6222 210.182 74.2646 209.741 74.2646C209.3 74.2646 208.943 74.6222 208.943 75.0631H210.54ZM208.943 88.2382C208.943 88.6792 209.3 89.0367 209.741 89.0367C210.182 89.0367 210.54 88.6792 210.54 88.2382H208.943ZM208.943 75.0631V88.2382H210.54V75.0631H208.943Z" fill="white"/>
<defs>
<linearGradient id="paint0_linear_85_30317" x1="296.597" y1="133.823" x2="296.597" y2="218.261" gradientUnits="userSpaceOnUse">
<stop stop-color="#C6D7FF"/>
<stop offset="1" stop-color="#4075ED"/>
</linearGradient>
<linearGradient id="paint1_linear_85_30317" x1="122.794" y1="217.645" x2="122.794" y2="310.494" gradientUnits="userSpaceOnUse">
<stop stop-color="#C6D7FF"/>
<stop offset="1" stop-color="#4075ED"/>
</linearGradient>
<linearGradient id="paint2_linear_85_30317" x1="351.915" y1="100.246" x2="351.915" y2="111.372" gradientUnits="userSpaceOnUse">
<stop stop-color="#C6D7FF"/>
<stop offset="1" stop-color="#4075ED"/>
</linearGradient>
<linearGradient id="paint3_linear_85_30317" x1="117.644" y1="331.969" x2="117.644" y2="347.383" gradientUnits="userSpaceOnUse">
<stop stop-color="#C6D7FF"/>
<stop offset="1" stop-color="#4075ED"/>
</linearGradient>
</defs>
</svg>
