<svg width="428" height="428" viewBox="0 0 428 428" fill="none" xmlns="http://www.w3.org/2000/svg">
<path d="M98.4642 289.829L81.8813 290.962C82.635 290.936 83.3718 291.196 83.9445 291.69C91.0649 297.799 60.8459 349.011 50.7743 347.23C50.2512 347.035 49.7603 346.762 49.3179 346.421C54.7263 351.83 68.0813 339.959 73.4641 333.241C80.4227 324.583 90.5369 320.701 100.485 319.285C103.428 311.256 102.42 296.696 98.4642 289.829Z" fill="url(#paint0_linear_85_29862)"/>
<path d="M344.5 412.764C337.218 406.657 326.54 399.136 316.992 396.34L312.374 387.197C304.936 391.056 296.639 392.961 288.263 392.733L290.448 396.334C288.75 401.153 287.677 406.169 287.254 411.26C287.183 412.177 287.398 413.092 287.87 413.881C288.343 414.669 289.049 415.291 289.89 415.66C290.448 415.907 291.053 416.032 291.662 416.034C308.209 416.075 322.65 416.237 343.191 416.277C343.496 416.278 343.798 416.21 344.072 416.076C344.347 415.942 344.587 415.748 344.775 415.506C344.962 415.265 345.091 414.984 345.153 414.685C345.215 414.386 345.207 414.077 345.131 413.782C345.03 413.386 344.81 413.03 344.5 412.764Z" fill="url(#paint1_linear_85_29862)"/>
<path d="M142.243 166.529C142.67 165.623 143.378 164.879 144.262 164.407C145.146 163.935 146.159 163.762 147.15 163.912C148.141 164.062 149.056 164.527 149.761 165.24C150.466 165.952 150.922 166.872 151.062 167.865C148.022 167.46 145.068 167.015 142.243 166.529Z" stroke="currentColor" stroke-linecap="round" stroke-linejoin="round"/>
<path fill-rule="evenodd" clip-rule="evenodd" d="M175.886 159.652C175.888 158.153 175.594 156.669 175.021 155.284C174.448 153.899 173.608 152.641 172.548 151.581C171.488 150.521 170.23 149.681 168.845 149.109C167.46 148.536 165.975 148.243 164.477 148.245H82.9736C81.4751 148.243 79.9909 148.537 78.6061 149.109C77.2213 149.682 75.9631 150.522 74.9035 151.582C73.8439 152.641 73.0037 153.9 72.4312 155.284C71.8587 156.669 71.5649 158.153 71.5669 159.652V206.051C71.5649 207.55 71.8587 209.034 72.4312 210.419C73.0037 211.804 73.8439 213.062 74.9035 214.121C75.9631 215.181 77.2213 216.021 78.6061 216.594C79.9909 217.166 81.4751 217.46 82.9736 217.458H164.483C167.509 217.458 170.411 216.258 172.551 214.119C173.61 213.059 174.449 211.801 175.021 210.417C175.593 209.033 175.887 207.549 175.886 206.051V198.369C166.581 198.529 157.275 198.015 148.049 196.838L150.934 201.844H96.3647L113.476 172.191C110.256 171.196 107.004 170.308 103.726 169.527C98.7559 168.333 99.5629 167.232 100.368 167.06C103.305 166.642 106.284 166.615 109.228 166.979L109.075 166.845C108.519 166.363 107.965 165.884 107.448 165.401C102.124 160.423 102.486 158.374 110.527 162.65C112.656 163.85 114.838 164.956 117.066 165.963L118.288 163.859L120.217 167.241C124.465 168.859 129.339 170.324 133.832 171.12C134.834 169.161 136.057 167.322 137.475 165.639C139.142 165.955 140.428 166.195 142.1 166.478C142.526 165.571 143.234 164.825 144.119 164.352C145.003 163.879 146.016 163.705 147.008 163.855C147.999 164.005 148.916 164.472 149.621 165.185C150.326 165.898 150.781 166.82 150.92 167.813C159.202 168.923 167.532 169.623 175.886 169.904V159.652Z" fill="url(#paint2_linear_85_29862)"/>
<path fill-rule="evenodd" clip-rule="evenodd" d="M387.583 105.12C387.586 102.863 386.919 100.656 385.665 98.7786C384.411 96.9015 382.628 95.4395 380.541 94.5783C379.157 94.0055 377.672 93.7117 376.174 93.7138H294.671C293.172 93.711 291.688 94.0041 290.302 94.5763C288.917 95.1486 287.659 95.9887 286.599 97.0484C285.539 98.1082 284.699 99.3668 284.127 100.752C283.555 102.137 283.261 103.622 283.264 105.12V158.014C289.897 159.409 294.667 160.012 295.31 159.773C308.616 154.842 320.674 146.586 332.89 135.987C334.243 136.306 335.544 136.815 336.754 137.501C340.598 134.628 346.406 128.745 347.701 125.956C348.661 123.373 350.165 121.027 352.113 119.078H352.752C354.049 119.887 352.549 126.603 351.862 129.394C355.92 126.623 359.432 123.126 362.219 119.078C363.837 116.893 365.657 114.587 366.547 115.113C367.802 115.852 366.886 119.265 366.424 120.666C365.602 123.121 364.388 125.426 362.83 127.493C364.58 129.631 363.713 133.449 362.063 135.431C364.122 136.283 363.354 139.756 361.354 142.115C363.194 142.051 363.692 145.52 361.616 147.517L361.597 147.53C360.637 148.232 358.839 149.553 349.243 156.336C349.519 157.933 349.6 159.371 349.558 160.955C343.349 166.197 336.788 170.82 329.973 175.038H376.183C377.681 175.039 379.164 174.745 380.549 174.172C381.933 173.599 383.19 172.758 384.249 171.699C385.308 170.639 386.148 169.381 386.72 167.996C387.292 166.611 387.585 165.127 387.583 163.629V105.12Z" fill="url(#paint3_linear_85_29862)"/>
<path d="M336.207 170.988C334.608 172.07 332.99 173.122 331.352 174.144C331.176 174.945 331.242 175.781 331.541 176.544C331.841 177.308 332.361 177.965 333.035 178.433C333.709 178.901 334.507 179.158 335.327 179.171C336.147 179.185 336.953 178.954 337.642 178.509C338.331 178.061 338.87 177.419 339.193 176.663C339.515 175.908 339.604 175.073 339.45 174.266C339.297 173.46 338.906 172.717 338.328 172.133C337.75 171.549 337.012 171.151 336.207 170.988Z" fill="#4075ED"/>
<path d="M127.836 217.458C127.837 218.275 127.595 219.074 127.142 219.753C126.688 220.433 126.042 220.962 125.287 221.274C124.723 221.509 124.114 221.615 123.504 221.586C122.893 221.556 122.297 221.391 121.758 221.103C121.22 220.814 120.752 220.41 120.389 219.918C120.026 219.427 119.777 218.861 119.659 218.261C119.541 217.662 119.557 217.044 119.706 216.452C119.855 215.86 120.134 215.308 120.522 214.837C120.911 214.365 121.399 213.986 121.951 213.726C122.504 213.466 123.107 213.332 123.718 213.334C124.809 213.341 125.853 213.778 126.624 214.55C127.395 215.322 127.83 216.367 127.836 217.458Z" fill="#4075ED"/>
<path d="M148.062 196.868C142.888 196.219 137.746 195.341 132.65 194.238C131.833 191.663 131.291 189.008 131.032 186.319C127.22 185.391 123.307 184.943 119.385 184.984C110.684 185.227 113.635 182.961 116.631 181.95C119.947 180.857 127.998 179.158 124.963 176.893C123.021 175.962 121.556 175.189 120.432 174.55C118.158 173.644 115.835 172.862 113.476 172.208L96.3647 201.844H150.934L148.062 196.868Z" fill="#4075ED"/>
<path d="M297.13 107.467V119.078H362.137C363.756 116.893 365.563 114.606 366.466 115.113C367.146 115.494 367.318 116.974 366.83 119.078H373.665V107.467H297.13Z" fill="#4075ED"/>
<path d="M235.719 130.97L235.598 131.091L238.025 135.989C242.233 134.937 245.346 133.319 245.59 130.24C245.037 133.033 238.487 131.683 235.719 130.97Z" fill="#4075ED"/>
<path d="M253.927 182.912L253.684 186.189L246.231 180.08C248.757 181.128 251.324 182.073 253.927 182.912Z" fill="#4075ED"/>
<path d="M204.09 189.588C205.261 188.819 206.518 187.969 207.851 186.998L208.66 175.023L204.09 189.588Z" fill="#4075ED"/>
<path d="M216.913 251.844C215.005 248.579 213.639 245.027 212.867 241.325L218.086 269.724C219.381 267.297 220.641 264.827 221.849 262.271L216.913 251.844Z" fill="#4075ED"/>
<path d="M211.615 193.834C206.637 192.056 206.111 189.628 210.885 187.727L211.615 193.834Z" fill="#4075ED"/>
<path d="M250.164 187.767L249.153 193.914C251.783 192.984 253.36 191.851 253.36 190.64C253.36 189.588 252.228 188.617 250.164 187.767Z" fill="#4075ED"/>
<path d="M98.4664 289.829L90.8223 290.314C92.8046 285.662 95.9198 285.379 98.4664 289.829Z" fill="#4075ED"/>
<path d="M100.489 319.279C98.6687 324.132 95.6366 325.143 92.8877 320.895C95.3825 320.187 97.9221 319.647 100.489 319.279Z" fill="#4075ED"/>
<path d="M50.8147 347.23C46.7094 345.54 48.2382 338.622 50.6486 332.325C54.9498 321.074 64.4337 305.298 72.7401 296.834C78.9257 290.529 85.5457 288.281 84.9985 295.816C84.0041 309.548 59.6534 348.785 50.8147 347.23Z" fill="#4075ED"/>
<path d="M237.018 110.056C236.801 108.949 236.244 107.936 235.424 107.16C234.605 106.384 233.564 105.883 232.446 105.727C232.704 104.816 232.718 103.853 232.487 102.934C232.256 102.016 231.787 101.174 231.128 100.493C230.468 99.8136 229.641 99.3194 228.729 99.0603C227.817 98.8013 226.854 98.7867 225.935 99.0179C225.825 98.0543 225.458 97.1379 224.874 96.3642C224.289 95.5904 223.508 94.9877 222.611 94.6187C221.714 94.2497 220.734 94.1291 219.774 94.2696C218.814 94.4101 217.909 94.8065 217.156 95.4172C216.824 94.7554 216.36 94.1689 215.793 93.694C215.225 93.2192 214.565 92.8663 213.855 92.6572C213.145 92.4481 212.4 92.3873 211.666 92.4786C210.931 92.5699 210.223 92.8113 209.586 93.1878C208.734 93.6925 208.038 94.4228 207.574 95.2958C206.839 94.662 205.947 94.2383 204.991 94.0695C204.036 93.9008 203.052 93.9933 202.145 94.3373C201.238 94.6813 200.44 95.2639 199.837 96.0237C199.233 96.7834 198.846 97.6921 198.716 98.6538C197.804 98.3932 196.839 98.3776 195.919 98.6085C194.999 98.8394 194.156 99.3087 193.475 99.9692C192.794 100.63 192.299 101.458 192.04 102.37C191.781 103.283 191.768 104.248 192 105.167C191.039 105.281 190.126 105.649 189.355 106.235C188.584 106.82 187.984 107.601 187.617 108.496C187.249 109.392 187.128 110.369 187.266 111.327C187.404 112.285 187.795 113.188 188.399 113.944C187.513 114.386 186.765 115.063 186.239 115.902C185.712 116.74 185.427 117.708 185.414 118.698C185.402 119.688 185.663 120.663 186.168 121.515C186.673 122.366 187.403 123.062 188.278 123.526C187.635 124.258 187.203 125.15 187.027 126.108C186.851 127.066 186.938 128.054 187.278 128.967C187.618 129.879 188.199 130.683 188.959 131.292C189.72 131.9 190.631 132.292 191.596 132.424C191.335 133.337 191.319 134.301 191.55 135.221C191.781 136.141 192.251 136.984 192.911 137.665C193.571 138.346 194.4 138.841 195.312 139.1C196.225 139.359 197.189 139.373 198.109 139.14C198.217 140.104 198.583 141.021 199.167 141.795C199.752 142.57 200.534 143.172 201.431 143.54C202.328 143.909 203.308 144.029 204.268 143.888C205.228 143.747 206.132 143.351 206.886 142.741C207.329 143.626 208.006 144.372 208.845 144.898C209.683 145.424 210.65 145.708 211.64 145.721C212.63 145.733 213.603 145.473 214.455 144.969C215.307 144.465 216.003 143.736 216.468 142.862C217.2 143.503 218.093 143.935 219.05 144.11C220.008 144.285 220.995 144.198 221.907 143.858C222.819 143.518 223.622 142.938 224.231 142.178C224.84 141.419 225.232 140.509 225.366 139.545C226.138 139.762 226.948 139.806 227.738 139.673C228.529 139.54 229.28 139.234 229.938 138.776C231.217 133.229 232.176 127.612 232.81 121.955C226.209 117.909 229.493 112.373 232.932 115.765C234.914 117.747 234.55 113.661 233.336 110.708C234.505 110.237 235.759 110.015 237.018 110.056Z" fill="#4075ED"/>
<path d="M365.819 355.848L357.121 337.238C356.976 336.95 356.75 336.712 356.471 336.551C356.192 336.39 355.873 336.314 355.551 336.332C355.23 336.35 354.921 336.461 354.662 336.652C354.403 336.844 354.205 337.106 354.093 337.408C353.942 337.812 353.955 338.259 354.127 338.654L362.825 357.264C362.915 357.466 363.044 357.649 363.205 357.802C363.365 357.954 363.555 358.073 363.762 358.152C363.97 358.23 364.191 358.265 364.413 358.255C364.635 358.246 364.852 358.192 365.053 358.096C365.254 358.003 365.434 357.869 365.581 357.704C365.729 357.538 365.841 357.344 365.911 357.134C365.983 356.924 366.012 356.702 365.996 356.481C365.98 356.26 365.92 356.045 365.819 355.848Z" fill="#4075ED"/>
<path d="M261.29 234.976C263.994 234.975 266.587 233.901 268.5 231.989C270.413 230.078 271.489 227.485 271.491 224.781V187.322" stroke="currentColor" stroke-linecap="round" stroke-linejoin="round"/>
<path d="M187.26 197.434V224.74C187.264 227.117 188.091 229.419 189.602 231.254" stroke="currentColor" stroke-linecap="round" stroke-linejoin="round"/>
<path d="M167.317 270.573V217.094" stroke="currentColor" stroke-linecap="round" stroke-linejoin="round"/>
<path d="M254.655 331.212H183.749C180.487 331.218 177.298 330.251 174.589 328.435C171.879 326.619 169.773 324.036 168.54 321.016" stroke="currentColor" stroke-linecap="round" stroke-linejoin="round"/>
<path d="M291.426 190.033V314.748C291.434 315.506 291.379 316.264 291.264 317.013" stroke="currentColor" stroke-linecap="round" stroke-linejoin="round"/>
<path d="M291.304 94.1992C290.766 90.283 288.8 86.7036 285.784 84.1488C282.767 81.5941 278.913 80.2443 274.962 80.3588H183.781C181.653 80.2847 179.532 80.6383 177.544 81.3987C175.555 82.1592 173.74 83.3109 172.204 84.7858C170.669 86.2607 169.446 88.0287 168.606 89.985C167.767 91.9414 167.328 94.0463 167.317 96.1752V148.609" stroke="currentColor" stroke-linecap="round" stroke-linejoin="round"/>
<path d="M175.886 169.945V159.652C175.888 158.153 175.594 156.669 175.021 155.284C174.448 153.899 173.608 152.641 172.548 151.581C171.488 150.521 170.23 149.681 168.845 149.109C167.46 148.536 165.975 148.243 164.477 148.245H82.9736C81.4751 148.243 79.9909 148.537 78.6061 149.109C77.2213 149.682 75.9631 150.522 74.9035 151.582C73.8439 152.641 73.0037 153.9 72.4312 155.284C71.8587 156.669 71.5649 158.153 71.5669 159.652V206.051C71.5649 207.55 71.8587 209.034 72.4312 210.419C73.0037 211.804 73.8439 213.062 74.9035 214.121C75.9631 215.181 77.2213 216.021 78.6061 216.594C79.9909 217.166 81.4751 217.46 82.9736 217.458H119.578M175.886 198.243V206.051C175.888 207.549 175.594 209.033 175.022 210.417C174.45 211.802 173.61 213.06 172.551 214.119C171.492 215.179 170.235 216.019 168.851 216.592C167.467 217.165 165.983 217.459 164.485 217.458H127.763" stroke="currentColor" stroke-linecap="round" stroke-linejoin="round"/>
<path d="M331.392 174.182C331.345 174.464 331.318 174.748 331.311 175.034C331.305 175.574 331.406 176.11 331.609 176.611C331.812 177.112 332.112 177.567 332.492 177.951C332.872 178.335 333.325 178.64 333.823 178.847C334.322 179.055 334.857 179.161 335.397 179.16C336.49 179.155 337.537 178.719 338.31 177.946C339.083 177.173 339.519 176.127 339.524 175.034C339.525 174.091 339.199 173.176 338.601 172.446C338.004 171.717 337.172 171.216 336.247 171.031" stroke="currentColor" stroke-linecap="round" stroke-linejoin="round"/>
<path d="M117.117 165.882L118.288 163.859L120.23 167.217" stroke="currentColor" stroke-linecap="round" stroke-linejoin="round"/>
<path d="M142.243 166.529C142.67 165.623 143.378 164.879 144.262 164.407C145.146 163.935 146.159 163.762 147.15 163.912C148.141 164.062 149.056 164.527 149.761 165.24C150.466 165.952 150.922 166.872 151.062 167.865C148.022 167.46 145.068 167.015 142.243 166.529Z" stroke="currentColor" stroke-linecap="round" stroke-linejoin="round"/>
<path d="M148.062 196.908L150.934 201.844H96.3647L113.476 172.191" stroke="currentColor" stroke-linecap="round" stroke-linejoin="round"/>
<path d="M283.255 158.019V105.123C283.251 102.865 283.918 100.658 285.172 98.7809C286.425 96.9038 288.208 95.4417 290.295 94.5804C291.679 94.0071 293.163 93.7126 294.662 93.7138H376.174C378.431 93.7101 380.639 94.3775 382.517 95.6313C384.394 96.8851 385.856 98.6686 386.718 100.755C387.291 102.139 387.585 103.624 387.583 105.123V163.617C387.586 165.874 386.919 168.081 385.665 169.958C384.411 171.835 382.628 173.298 380.541 174.159C379.156 174.731 377.672 175.025 376.174 175.023H339.629" stroke="currentColor" stroke-linecap="round" stroke-linejoin="round"/>
<path d="M301.176 93.7137C301.152 87.5914 298.705 81.7276 294.368 77.406C290.031 73.0845 284.159 70.6572 278.036 70.6555H180.344C177.305 70.6544 174.296 71.2521 171.488 72.4146C168.68 73.577 166.129 75.2814 163.98 77.4303C161.831 79.5792 160.127 82.1305 158.964 84.9383C157.802 87.7462 157.204 90.7556 157.205 93.7946V148.245" stroke="currentColor" stroke-linecap="round" stroke-linejoin="round"/>
<path d="M157.205 281.697V217.458" stroke="currentColor" stroke-linecap="round" stroke-linejoin="round"/>
<path d="M259.105 340.597H180.342C175.026 340.598 169.873 338.768 165.747 335.416C161.622 332.064 158.777 327.393 157.69 322.19" stroke="currentColor" stroke-linecap="round" stroke-linejoin="round"/>
<path d="M301.175 190.033V317.458C301.178 322.479 299.545 327.364 296.523 331.373" stroke="currentColor" stroke-linecap="round" stroke-linejoin="round"/>
<path d="M362.178 119.078H297.13V107.467H373.665V119.078H366.871" stroke="currentColor" stroke-linecap="round" stroke-linejoin="round"/>
<path d="M352.751 125.349H356.878" stroke="currentColor" stroke-linecap="round" stroke-linejoin="round"/>
<path d="M297.13 159.045V125.349H347.98" stroke="currentColor" stroke-linecap="round" stroke-linejoin="round"/>
<path d="M364.241 125.349H373.668V161.27H349.234" stroke="currentColor" stroke-linecap="round" stroke-linejoin="round"/>
<path d="M335.398 179.15V221.585C335.398 225.186 334.689 228.753 333.311 232.08C331.933 235.408 329.913 238.432 327.366 240.979C324.819 243.526 321.796 245.546 318.468 246.924C315.141 248.303 311.574 249.012 307.972 249.012H266.63" stroke="currentColor" stroke-linecap="round" stroke-linejoin="round"/>
<path d="M181.762 248.991H151.186C143.91 248.985 136.934 246.091 131.792 240.944C126.649 235.798 123.76 228.82 123.76 221.544" stroke="currentColor" stroke-linecap="round" stroke-linejoin="round"/>
<path d="M123.73 336.673V359.61" stroke="currentColor" stroke-linecap="round" stroke-linejoin="round"/>
<path d="M135.199 348.142H112.262" stroke="currentColor" stroke-linecap="round" stroke-linejoin="round"/>
<path d="M245.673 130.233C244.985 132.944 239.072 131.739 237.058 131.298L235.567 130.947C236.845 133.813 238.059 135.987 238.059 135.987" stroke="currentColor" stroke-linecap="round" stroke-linejoin="round"/>
<path d="M254.978 149.54C250.941 148.069 247.031 146.269 243.289 144.159C242.225 143.591 241.286 142.815 240.528 141.877C239.77 140.938 239.21 139.857 238.879 138.697C238.593 137.805 238.353 136.875 238.067 135.983C241.726 135.065 245.147 133.711 245.673 130.233C246.312 126.047 242.784 119.708 237.139 110.099C235.843 110.037 234.549 110.243 233.336 110.703C234.509 113.657 234.92 117.73 232.932 115.761C229.503 112.354 226.216 117.905 232.81 121.95C232.487 125.308 231.959 128.421 231.394 131.577C231.084 134.01 230.597 136.416 229.938 138.778C229.152 140.411 228.004 141.842 226.581 142.964C225.158 144.086 223.498 144.868 221.727 145.251C218.575 146.165 215.565 147.512 212.784 149.254C229.531 157.589 254.944 149.54 254.944 149.54H254.978Z" stroke="currentColor" stroke-linecap="round" stroke-linejoin="round"/>
<path d="M253.684 186.189L246.231 180.04C248.735 181.101 251.286 182.046 253.877 182.872" stroke="currentColor" stroke-linecap="round" stroke-linejoin="round"/>
<path d="M253.36 190.639C253.75 185.299 253.632 187.049 253.886 182.872C267.551 187.021 281.659 189.537 295.916 190.365C299.04 190.571 302.164 189.958 304.978 188.585C320.85 180.853 336.038 172.368 349.557 160.955C349.849 150.121 342.184 138.242 332.889 135.987C320.673 146.586 308.615 154.842 295.309 159.773C293.885 160.301 272.268 156.709 254.938 149.54" stroke="currentColor" stroke-linecap="round" stroke-linejoin="round"/>
<path d="M204.09 189.588L208.66 175.023L207.851 186.998" stroke="currentColor" stroke-linecap="round" stroke-linejoin="round"/>
<path d="M207.574 190.529L207.851 186.998C201.159 191.993 193.602 195.709 185.561 197.96C167.84 199.153 150.04 197.901 132.661 194.238C129.467 184.047 130.434 174.05 137.475 165.639C152.944 168.571 168.654 170.047 184.399 170.049C195.807 163.333 203.977 154.635 212.797 149.254" stroke="currentColor" stroke-linecap="round" stroke-linejoin="round"/>
<path d="M212.706 203.179C212.706 203.179 192.562 215.718 184.599 244.764L160.325 281.05C140.965 285.325 118.546 286.765 94.5996 286.652" stroke="currentColor" stroke-linecap="round" stroke-linejoin="round"/>
<path d="M218.046 269.764L212.827 241.366" stroke="currentColor" stroke-linecap="round" stroke-linejoin="round"/>
<path d="M215.942 218.914C213.237 223.933 211.879 229.567 211.999 235.268C212.12 240.968 213.715 246.539 216.629 251.439C216.825 251.767 221.848 262.28 221.848 262.28" stroke="currentColor" stroke-linecap="round" stroke-linejoin="round"/>
<path d="M100.489 319.279C90.5389 320.693 80.4183 324.572 73.4683 333.234C66.7866 341.562 55.4033 350.392 49.8203 346.834" stroke="currentColor" stroke-linecap="round" stroke-linejoin="round"/>
<path d="M210.925 187.727L212.705 203.179C224.158 200.224 236.173 200.224 247.626 203.179L250.198 187.767" stroke="currentColor" stroke-linecap="round" stroke-linejoin="round"/>
<path d="M249.153 193.914C251.782 192.984 253.36 191.853 253.36 190.639C253.36 189.588 252.229 188.615 250.204 187.767C241.391 184.075 219.826 184.09 210.925 187.727C209.477 188.319 207.203 189.502 207.621 191.018C207.906 192.055 209.341 193.041 211.613 193.833" stroke="currentColor" stroke-linecap="round" stroke-linejoin="round"/>
<path d="M358.011 132.235C358.901 131.345 361.53 129.001 362.825 127.504" stroke="currentColor" stroke-linecap="round" stroke-linejoin="round"/>
<path d="M348.303 131.617C349.598 130.849 350.812 130.127 351.861 129.394" stroke="currentColor" stroke-linecap="round" stroke-linejoin="round"/>
<path d="M362.059 135.431L358.051 138.94" stroke="currentColor" stroke-linecap="round" stroke-linejoin="round"/>
<path d="M358.334 144.887C358.334 144.887 360.636 142.715 361.35 142.119" stroke="currentColor" stroke-linecap="round" stroke-linejoin="round"/>
<path d="M247.615 203.179C278.036 270.776 288.755 318.8 317.801 383.761C306.873 391.53 297.104 392.976 283.862 392.619L221.848 262.28L218.045 269.764C210.689 282.616 202.315 294.858 193.005 306.373C189.828 310.502 185.851 313.948 181.312 316.506C176.774 319.063 171.766 320.68 166.589 321.259C143.283 323.954 119.795 324.727 96.3623 323.572" stroke="currentColor" stroke-linecap="round" stroke-linejoin="round"/>
<path d="M312.374 387.197L316.986 396.34C326.534 399.132 337.246 406.616 344.494 412.764C344.808 413.027 345.032 413.381 345.137 413.776C345.242 414.172 345.222 414.59 345.08 414.974C344.94 415.358 344.685 415.691 344.35 415.925C344.014 416.159 343.615 416.284 343.206 416.283C322.656 416.264 308.215 416.071 291.677 416.041C291.067 416.038 290.464 415.91 289.906 415.664C289.348 415.419 288.846 415.061 288.432 414.614C288.018 414.166 287.701 413.638 287.501 413.062C287.301 412.486 287.222 411.875 287.269 411.267C287.706 406.161 288.794 401.131 290.504 396.3L288.281 392.699" stroke="currentColor" stroke-linecap="round" stroke-linejoin="round"/>
<path d="M92.8851 320.891C94.4331 323.284 96.079 324.008 97.5355 323.316C101.349 321.513 102.188 312.031 102.188 307.745C102.188 301.404 100.25 287.469 94.9697 286.675C93.428 286.443 91.946 287.678 90.8218 290.31" stroke="currentColor" stroke-linecap="round" stroke-linejoin="round"/>
<path d="M79.8988 291.598C77.2503 292.934 74.8333 294.686 72.7401 296.787C65.1891 304.64 59.0324 313.724 54.5346 323.646C50.3782 332.43 47.772 341.013 48.711 344.965C49.3498 347.686 51.5855 347.771 54.0513 346.436C66.1329 339.895 90.3899 297.249 83.9466 291.69C83.3663 291.254 82.6641 291.011 81.9385 290.994C81.2129 290.978 80.4983 291.189 79.8988 291.598Z" stroke="currentColor" stroke-linecap="round" stroke-linejoin="round"/>
<path d="M238.029 201.399C238.029 201.399 236.411 220.452 240.584 230C244.758 239.547 304.783 390.353 304.783 390.353" stroke="currentColor" stroke-linecap="round" stroke-linejoin="round"/>
<path d="M216.184 250.914C207.119 266.131 197.262 280.863 186.653 295.048C179.912 303.635 169.016 306.02 158.135 306.818C139.534 308.207 120.866 308.518 102.229 307.749" stroke="currentColor" stroke-linecap="round" stroke-linejoin="round"/>
<path d="M127.835 217.458C127.837 218.275 127.595 219.074 127.141 219.753C126.687 220.433 126.042 220.962 125.287 221.274C124.723 221.509 124.113 221.615 123.503 221.586C122.893 221.556 122.297 221.391 121.758 221.103C121.219 220.814 120.751 220.41 120.388 219.918C120.025 219.426 119.776 218.86 119.659 218.261C119.541 217.662 119.556 217.044 119.706 216.452C119.855 215.859 120.134 215.308 120.522 214.836C120.91 214.365 121.398 213.986 121.951 213.726C122.503 213.466 123.107 213.332 123.717 213.334C124.808 213.341 125.853 213.778 126.624 214.55C127.394 215.322 127.83 216.367 127.835 217.458Z" stroke="currentColor" stroke-linecap="round" stroke-linejoin="round"/>
<path d="M40.417 182.225L47.5778 192.339L55.9907 177.693" stroke="currentColor" stroke-linecap="round" stroke-linejoin="round"/>
<path d="M233.336 110.703C234.55 113.657 234.92 117.73 232.932 115.76C229.503 112.354 226.216 117.905 232.81 121.95C232.486 125.268 231.958 128.423 231.394 131.577C231.076 134.008 230.59 136.414 229.938 138.778C229.035 139.405 227.962 139.744 226.863 139.749C226.36 139.744 225.859 139.676 225.372 139.547C225.274 140.269 225.03 140.964 224.656 141.589C224.281 142.214 223.784 142.757 223.193 143.184C222.603 143.611 221.932 143.914 221.221 144.074C220.51 144.235 219.774 144.249 219.057 144.116C218.099 143.94 217.206 143.507 216.474 142.864C216.01 143.739 215.314 144.469 214.463 144.975C213.611 145.48 212.636 145.74 211.646 145.728C210.656 145.715 209.688 145.43 208.85 144.904C208.011 144.377 207.334 143.629 206.892 142.743C206.138 143.352 205.234 143.747 204.274 143.887C203.315 144.027 202.336 143.906 201.439 143.538C200.542 143.17 199.76 142.568 199.176 141.795C198.591 141.022 198.225 140.106 198.115 139.142C197.196 139.374 196.231 139.36 195.319 139.101C194.407 138.841 193.579 138.347 192.919 137.666C192.258 136.985 191.789 136.142 191.558 135.223C191.327 134.303 191.342 133.339 191.602 132.426C190.637 132.293 189.727 131.901 188.967 131.292C188.207 130.683 187.626 129.88 187.286 128.968C186.946 128.055 186.859 127.068 187.035 126.11C187.211 125.153 187.642 124.26 188.284 123.528C187.41 123.064 186.681 122.368 186.176 121.516C185.671 120.664 185.411 119.69 185.423 118.7C185.436 117.71 185.721 116.743 186.247 115.904C186.773 115.066 187.52 114.388 188.406 113.946C187.803 113.19 187.412 112.287 187.276 111.329C187.139 110.371 187.26 109.395 187.627 108.5C187.994 107.605 188.594 106.824 189.364 106.239C190.134 105.653 191.046 105.284 192.006 105.169C191.774 104.25 191.788 103.285 192.047 102.372C192.306 101.46 192.8 100.632 193.481 99.9712C194.162 99.3108 195.005 98.8415 195.925 98.6105C196.845 98.3796 197.81 98.3952 198.722 98.6558C198.853 97.6946 199.24 96.7864 199.844 96.027C200.448 95.2677 201.245 94.6854 202.152 94.3415C203.059 93.9977 204.042 93.905 204.998 94.0733C205.953 94.2417 206.845 94.6647 207.58 95.2979C208.044 94.4236 208.741 93.6941 209.592 93.1894C210.444 92.6847 211.418 92.4243 212.408 92.4368C213.398 92.4494 214.365 92.7343 215.204 93.2604C216.042 93.7865 216.72 94.5335 217.162 95.4193C217.916 94.8124 218.82 94.419 219.778 94.28C220.737 94.141 221.715 94.2615 222.611 94.629C223.506 94.9965 224.287 95.5975 224.872 96.3694C225.457 97.1413 225.824 98.0558 225.935 99.0178C226.854 98.7865 227.818 98.8013 228.729 99.0606C229.641 99.3199 230.468 99.8147 231.128 100.495C231.788 101.175 232.257 102.018 232.489 102.937C232.72 103.856 232.705 104.82 232.446 105.731C233.564 105.887 234.605 106.388 235.425 107.164C236.245 107.94 236.801 108.953 237.018 110.06C235.759 110.016 234.505 110.235 233.336 110.703Z" stroke="currentColor" stroke-linecap="round" stroke-linejoin="round"/>
<path d="M343.53 62.5664L327.309 78.747" stroke="currentColor" stroke-linecap="round" stroke-linejoin="round"/>
<path d="M343.489 78.7874L327.349 62.5664" stroke="currentColor" stroke-linecap="round" stroke-linejoin="round"/>
<path d="M365.86 355.848C365.954 356.047 366.007 356.262 366.017 356.482C366.027 356.702 365.994 356.922 365.919 357.129C365.843 357.336 365.728 357.525 365.579 357.688C365.43 357.85 365.25 357.98 365.051 358.073C364.851 358.167 364.636 358.22 364.416 358.23C364.196 358.24 363.976 358.207 363.769 358.132C363.563 358.056 363.373 357.941 363.211 357.792C363.049 357.643 362.918 357.463 362.825 357.264L354.168 338.656C354.019 338.265 354.022 337.832 354.178 337.444C354.335 337.056 354.631 336.741 355.009 336.562C355.387 336.383 355.819 336.354 356.218 336.479C356.617 336.605 356.954 336.876 357.161 337.24L365.86 355.848Z" stroke="currentColor" stroke-linecap="round" stroke-linejoin="round"/>
<path d="M350.609 327.166L355.664 337.968" stroke="currentColor" stroke-linecap="round" stroke-linejoin="round"/>
<path d="M338.068 300.305C336.082 301.232 334.326 302.587 332.927 304.275C331.528 305.962 330.521 307.938 329.977 310.062C329.434 312.185 329.369 314.402 329.786 316.554C330.203 318.706 331.092 320.738 332.389 322.505C334.125 324.865 336.522 326.658 339.276 327.658C342.03 328.657 345.019 328.818 347.864 328.121C350.71 327.423 353.285 325.898 355.265 323.738C357.245 321.578 358.54 318.88 358.988 315.985C359.433 313.087 359.008 310.122 357.768 307.466C356.102 303.906 353.092 301.153 349.399 299.811C345.706 298.468 341.63 298.646 338.068 300.305Z" stroke="currentColor" stroke-linecap="round" stroke-linejoin="round"/>
<path d="M167.526 30.91C166.789 30.827 166.229 30.7397 165.929 29.9242C165.503 28.8148 164.773 27.8907 165.695 26.9197C166.569 26.0418 167.06 24.8531 167.06 23.614C167.06 22.3749 166.569 21.1862 165.695 20.3083L163.431 18.0895C162.554 17.2183 161.367 16.7294 160.131 16.7294C158.894 16.7294 157.708 17.2183 156.83 18.0895C155.906 19.0136 154.935 18.2748 153.871 17.8574C153.581 17.7491 153.331 17.5531 153.158 17.2967C152.984 17.0403 152.895 16.7361 152.902 16.4265C152.904 15.8127 152.785 15.2045 152.551 14.6369C152.317 14.0694 151.973 13.5537 151.539 13.1196C151.105 12.6856 150.589 12.3417 150.022 12.1079C149.454 11.874 148.846 11.7547 148.232 11.757H145.038C144.425 11.7553 143.817 11.8749 143.25 12.109C142.683 12.3431 142.167 12.6871 141.733 13.121C141.3 13.555 140.956 14.0705 140.722 14.6378C140.488 15.205 140.369 15.813 140.371 16.4265C140.371 17.7212 139.168 17.9171 138.105 18.3685C137.828 18.4899 137.519 18.5238 137.222 18.4656C136.924 18.4074 136.652 18.2599 136.44 18.0427C135.563 17.1715 134.376 16.6826 133.14 16.6826C131.903 16.6826 130.717 17.1715 129.839 18.0427L127.514 20.3083C126.638 21.1851 126.145 22.3742 126.145 23.614C126.145 24.8538 126.638 26.0429 127.514 26.9197C128.438 27.8438 127.699 28.8148 127.28 29.9242C127.172 30.2147 126.976 30.4643 126.72 30.6384C126.463 30.8124 126.159 30.9021 125.849 30.8951C125.236 30.8937 124.628 31.0136 124.061 31.2478C123.494 31.482 122.979 31.8259 122.545 32.2598C122.111 32.6937 121.767 33.2091 121.533 33.7762C121.3 34.3434 121.18 34.9512 121.182 35.5647L121.229 38.7586C121.227 39.3721 121.347 39.9797 121.581 40.5468C121.815 41.1138 122.159 41.629 122.592 42.0629C123.026 42.4968 123.541 42.8407 124.108 43.075C124.675 43.3093 125.282 43.4293 125.896 43.4282C127.191 43.4282 127.386 44.6312 127.838 45.6938C127.968 45.976 128.007 46.2919 127.949 46.5974C127.891 46.9028 127.739 47.1825 127.514 47.3972C126.64 48.2731 126.149 49.4601 126.149 50.6976C126.149 51.9352 126.64 53.1222 127.514 53.998L129.78 56.2636C130.657 57.1348 131.844 57.6237 133.08 57.6237C134.317 57.6237 135.503 57.1348 136.381 56.2636C137.305 55.3374 138.276 56.0762 139.34 56.4936C139.63 56.6035 139.879 56.8001 140.052 57.0566C140.226 57.313 140.317 57.6169 140.311 57.9266C140.308 58.5416 140.427 59.1512 140.661 59.72C140.895 60.2888 141.24 60.8057 141.674 61.2408C142.109 61.6759 142.626 62.0206 143.194 62.255C143.763 62.4895 144.372 62.6091 144.987 62.6068L148.224 62.56C148.837 62.5605 149.444 62.4401 150.01 62.2055C150.577 61.971 151.091 61.6269 151.525 61.1931C151.958 60.7593 152.301 60.2443 152.535 59.6775C152.769 59.1108 152.888 58.5035 152.887 57.8904C152.887 56.5958 154.09 56.4127 155.155 55.9485C155.437 55.8183 155.753 55.7797 156.059 55.8381C156.364 55.8965 156.644 56.049 156.858 56.2743C157.736 57.1454 158.922 57.6344 160.158 57.6344C161.395 57.6344 162.581 57.1454 163.459 56.2743L165.678 54.0087C166.549 53.1312 167.038 51.9448 167.038 50.7083C167.038 49.4717 166.549 48.2854 165.678 47.4079C164.754 46.4837 165.492 45.5128 165.91 44.4034C166.02 44.1138 166.216 43.8651 166.473 43.6914C166.729 43.5176 167.033 43.4272 167.343 43.4325C167.958 43.4361 168.568 43.3178 169.137 43.0844C169.707 42.8509 170.224 42.5069 170.66 42.0723C171.095 41.6377 171.44 41.1211 171.675 40.5524C171.91 39.9836 172.029 39.3739 172.027 38.7586V35.5647C172.028 34.3563 171.559 33.195 170.719 32.3264C169.879 31.4578 168.734 30.9498 167.526 30.91Z" stroke="currentColor" stroke-linecap="round" stroke-linejoin="round"/>
<path d="M146.605 49.0623C144.247 49.0623 141.941 48.3629 139.981 47.0527C138.02 45.7425 136.491 43.8802 135.589 41.7013C134.686 39.5225 134.45 37.125 134.91 34.8119C135.37 32.4989 136.506 30.3742 138.174 28.7066C139.841 27.039 141.966 25.9033 144.279 25.4432C146.592 24.9831 148.99 25.2193 151.168 26.1218C153.347 27.0243 155.21 28.5526 156.52 30.5135C157.83 32.4744 158.529 34.7798 158.529 37.1382C158.535 38.7056 158.23 40.2586 157.633 41.7077C157.035 43.1568 156.157 44.4734 155.049 45.5817C153.94 46.69 152.624 47.5682 151.175 48.1655C149.726 48.7628 148.173 49.0676 146.605 49.0623Z" stroke="currentColor" stroke-linecap="round" stroke-linejoin="round"/>
<path d="M366.424 120.666C366.886 119.265 367.801 115.852 366.547 115.113C365.657 114.587 363.836 116.893 362.218 119.078C359.431 123.126 355.92 126.623 351.861 129.394C352.549 126.603 354.048 119.887 352.751 119.078H352.113C350.165 121.027 348.66 123.373 347.701 125.956C346.406 128.745 340.597 134.628 336.754 137.501C340.076 139.548 342.913 142.293 345.069 145.545C347.226 148.798 348.649 152.48 349.242 156.336C358.901 149.508 360.66 148.217 361.616 147.517C363.692 145.52 363.193 142.051 361.354 142.115C363.353 139.756 364.122 136.283 362.063 135.431C363.713 133.449 364.58 129.631 362.829 127.493C364.388 125.426 365.602 123.121 366.424 120.666Z" stroke="currentColor" stroke-linecap="round" stroke-linejoin="round"/>
<path d="M131.034 186.343C127.221 185.41 123.308 184.951 119.382 184.976C110.684 185.223 113.633 182.94 116.631 181.941C119.942 180.836 127.998 179.15 124.963 176.884C122.983 175.954 121.556 175.181 120.432 174.542C114.966 172.546 109.387 170.872 103.726 169.528C98.7559 168.333 99.5629 167.232 100.368 167.06C103.305 166.642 106.284 166.615 109.228 166.979C108.621 166.453 108.014 165.929 107.448 165.401C102.124 160.423 102.486 158.374 110.527 162.65C117.751 166.784 125.636 169.641 133.832 171.095" stroke="currentColor" stroke-linecap="round" stroke-linejoin="round"/>
<path d="M129.09 178.745C127.703 178.151 126.327 177.53 124.963 176.884" stroke="currentColor" stroke-linecap="round" stroke-linejoin="round"/>
<path d="M109.238 166.974C111.581 168.891 119.246 173.861 120.443 174.538" stroke="currentColor" stroke-linecap="round" stroke-linejoin="round"/>
<path d="M82.0771 290.974L98.4728 289.829" stroke="currentColor" stroke-linecap="round" stroke-linejoin="round"/>
<defs>
<linearGradient id="paint0_linear_85_29862" x1="75.7518" y1="289.829" x2="75.7518" y2="347.793" gradientUnits="userSpaceOnUse">
<stop stop-color="#C6D7FF"/>
<stop offset="1" stop-color="#4075ED"/>
</linearGradient>
<linearGradient id="paint1_linear_85_29862" x1="316.218" y1="387.197" x2="316.218" y2="416.277" gradientUnits="userSpaceOnUse">
<stop stop-color="#C6D7FF"/>
<stop offset="1" stop-color="#4075ED"/>
</linearGradient>
<linearGradient id="paint2_linear_85_29862" x1="123.726" y1="148.245" x2="123.726" y2="217.458" gradientUnits="userSpaceOnUse">
<stop stop-color="#C6D7FF"/>
<stop offset="1" stop-color="#4075ED"/>
</linearGradient>
<linearGradient id="paint3_linear_85_29862" x1="335.424" y1="93.7137" x2="335.424" y2="175.038" gradientUnits="userSpaceOnUse">
<stop stop-color="#C6D7FF"/>
<stop offset="1" stop-color="#4075ED"/>
</linearGradient>
</defs>
</svg>
