<svg width="428" height="428" viewBox="0 0 428 428" fill="none" xmlns="http://www.w3.org/2000/svg">
<path d="M319.571 193.529L277.013 235.161C265.925 201.984 253.262 192.884 247.679 190.414C242.06 194.685 214.358 200.756 200.064 202.593L168.184 265.421C166.508 268.742 165.558 272.383 165.397 276.101C165.237 279.821 165.87 283.53 167.254 286.984C177.278 311.26 189.507 334.567 203.786 356.612C221.261 354.185 236.028 347.064 244.766 331.893C229.514 310.653 216.73 290.506 207.832 272.179L222.232 248.514L221.627 225.29C230.445 243.497 245.82 261.943 257.753 274.647C261.507 278.626 266.619 281.047 272.077 281.429C277.532 281.812 282.934 280.128 287.206 276.71C307.96 260.163 327.824 242.888 347.567 225.607C345.953 218.346 342.544 211.606 337.655 206.003C332.764 200.399 326.547 196.111 319.571 193.529Z" fill="url(#paint0_linear_85_30222)"/>
<path fill-rule="evenodd" clip-rule="evenodd" d="M144.076 81.0615L127.977 74.6948C123.876 77.4146 119.309 79.3535 114.505 80.4142C90.9992 85.6735 67.5045 69.74 67.2916 46.9565C67.1021 27.6991 84.0343 11.9295 105.153 11.7165C126.231 11.5164 143.491 26.9304 143.712 46.2389C143.768 52.9807 141.717 59.5717 137.846 65.0917L144.076 81.0615ZM111.871 39.2011C112.43 39.4328 112.938 39.7722 113.365 40.2002C113.793 40.6278 114.133 41.1354 114.364 41.6943C114.596 42.2531 114.715 42.852 114.715 43.457C114.715 44.0619 114.596 44.6609 114.364 45.2196C114.133 45.7785 113.793 46.2862 113.365 46.7137L105.678 54.36L97.9914 46.7137C97.1278 45.8499 96.6425 44.6785 96.6425 43.457C96.6425 42.2354 97.1278 41.0638 97.9914 40.2002C98.8553 39.3365 100.027 38.8513 101.248 38.8513C102.47 38.8513 103.641 39.3365 104.505 40.2002L105.678 41.3734L106.851 40.2002C107.279 39.7722 107.787 39.4328 108.346 39.2011C108.904 38.9695 109.503 38.8502 110.108 38.8502C110.713 38.8502 111.312 38.9695 111.871 39.2011Z" fill="url(#paint1_linear_85_30222)"/>
<path d="M54.7435 189.607L56.5236 193.207L60.4883 193.774L57.6159 196.565L58.3036 200.528L54.7435 198.667L51.2237 200.528L51.871 196.565L49.0391 193.774L53.0038 193.207L54.7435 189.607Z" fill="url(#paint2_linear_85_30222)"/>
<path d="M70.198 189.607L71.9781 193.207L75.9428 193.774L73.0704 196.565L73.7582 200.528L70.198 198.667L66.6782 200.528L67.3256 196.565L64.4531 193.774L68.4179 193.207L70.198 189.607Z" fill="url(#paint3_linear_85_30222)"/>
<path d="M85.6521 189.607L87.4322 193.207L91.3969 193.774L88.5245 196.565L89.2123 200.528L85.6521 198.667L82.0919 200.528L82.7797 196.565L79.9072 193.774L83.872 193.207L85.6521 189.607Z" fill="url(#paint4_linear_85_30222)"/>
<path d="M101.107 189.607L102.887 193.207L106.852 193.774L103.979 196.565L104.626 200.528L101.107 198.667L97.5465 200.528L98.2342 196.565L95.3618 193.774L99.3266 193.207L101.107 189.607Z" fill="url(#paint5_linear_85_30222)"/>
<path d="M116.561 189.607L118.301 193.207L122.266 193.774L119.393 196.565L120.081 200.528L116.561 198.667L113.001 200.528L113.689 196.565L110.816 193.774L114.781 193.207L116.561 189.607Z" fill="url(#paint6_linear_85_30222)"/>
<path d="M360.756 340.306L345.868 338.162L339.233 324.69L332.598 338.162L317.71 340.306L328.471 350.825L325.923 365.632L339.233 358.633L352.543 365.632L349.994 350.825L360.756 340.306Z" fill="url(#paint7_linear_85_30222)"/>
<path d="M205.283 108.612C205.474 109.544 205.569 110.493 205.566 111.444L207.789 107.156C206.997 107.712 206.158 108.2 205.283 108.612Z" fill="#4075ED"/>
<path d="M199.498 199.759C198.405 205.18 195.412 203.117 193.146 197.372C195.212 198.299 197.333 199.096 199.498 199.759Z" fill="#4075ED"/>
<path d="M196.342 177.998C195.343 178.247 194.304 178.29 193.288 178.122C192.272 177.955 191.302 177.581 190.436 177.025C191.366 171.84 194.036 172.86 196.342 177.998Z" fill="#4075ED"/>
<path d="M170.45 121.478L159.081 140.088C158.986 140.233 158.952 140.409 158.986 140.579C159.021 140.749 159.121 140.899 159.266 140.995C159.41 141.091 159.587 141.126 159.757 141.092C159.927 141.058 160.077 140.958 160.174 140.814L172.999 123.177C173.121 123.01 173.208 122.82 173.255 122.618C173.302 122.416 173.307 122.208 173.271 122.004C173.235 121.8 173.158 121.606 173.045 121.432C172.931 121.259 172.784 121.111 172.612 120.996C172.44 120.881 172.246 120.802 172.042 120.764C171.839 120.726 171.63 120.73 171.428 120.775C171.226 120.82 171.035 120.905 170.867 121.026C170.699 121.147 170.557 121.3 170.45 121.478Z" fill="white"/>
<path d="M199.862 104.526C199.879 105.057 200.102 105.56 200.483 105.929C200.864 106.298 201.374 106.504 201.905 106.504C202.436 106.504 202.945 106.298 203.327 105.929C203.708 105.56 203.931 105.057 203.948 104.526C203.931 103.996 203.708 103.493 203.327 103.124C202.945 102.755 202.436 102.548 201.905 102.548C201.374 102.548 200.864 102.755 200.483 103.124C200.102 103.493 199.879 103.996 199.862 104.526Z" fill="#4075ED"/>
<path d="M228.664 237.869L222.191 248.469L221.584 225.247C223.727 229.574 226.088 233.788 228.664 237.869Z" fill="#4075ED"/>
<path d="M326.853 189.524L322.322 194.704C330.824 198.438 337.902 204.805 342.51 212.867C345.599 210.65 349.049 208.981 352.705 207.931C364.889 203.148 376.47 196.957 387.214 189.483C375.401 185.561 339.03 188.472 326.853 189.524Z" fill="#4075ED"/>
<path d="M234.048 344.594C226.776 350.254 218.235 354.059 209.165 355.679L210.623 357.985C213.253 362.072 213.576 366.562 213.979 371.417C215.476 384.425 218.476 397.216 222.922 409.531C229.8 399.098 236.313 363.209 238.417 351.152L234.048 344.594Z" fill="#4075ED"/>
<path d="M235.293 71.716C235.293 63.1391 229.308 52.2158 220.69 52.2158C212.111 52.2158 204.669 60.5499 203.615 68.9244C203.345 71.1061 203.671 73.3204 204.559 75.3315C202.001 75.6062 199.6 76.6974 197.711 78.4435C195.821 80.1897 194.545 82.4979 194.07 85.0262L195.12 84.9858C194.822 87.8475 194.684 90.7238 194.706 93.6009C196.442 78.1635 205.293 83.9828 208.025 90.0024C208.664 86.8468 210.291 84.6216 212.194 84.6216H217.897C218.514 84.6444 219.108 84.8563 219.6 85.2285C219.543 84.9623 219.481 84.7089 219.417 84.4577C227.928 84.3725 235.293 80.2055 235.293 71.716Z" fill="#4075ED"/>
<path d="M235.293 71.716C235.293 63.1391 229.308 52.2158 220.69 52.2158C212.111 52.2158 204.669 60.5499 203.615 68.9244C203.345 71.1061 203.671 73.3204 204.559 75.3315C202.001 75.6062 199.6 76.6974 197.711 78.4435C195.821 80.1897 194.545 82.4979 194.07 85.0262L195.12 84.9858C194.822 87.8475 194.684 90.7238 194.706 93.6009C196.442 78.1635 205.293 83.9828 208.025 90.0024C208.664 86.8468 210.291 84.6216 212.194 84.6216H217.897C218.514 84.6444 219.108 84.8563 219.6 85.2285C219.543 84.9623 219.481 84.7089 219.417 84.4577C227.928 84.3725 235.293 80.2055 235.293 71.716Z" stroke="currentColor" stroke-linejoin="round"/>
<path d="M195.573 343.34C168.371 339.463 143.175 326.821 123.803 307.334" stroke="currentColor" stroke-linecap="round" stroke-linejoin="round"/>
<path d="M339.233 232.853C336.035 259.733 324.313 284.884 305.786 304.621C287.257 324.357 262.897 337.642 236.271 342.531" stroke="currentColor" stroke-linecap="round" stroke-linejoin="round"/>
<path d="M326.166 160.154C329.977 167.559 333.041 175.325 335.309 183.338" stroke="currentColor" stroke-linecap="round" stroke-linejoin="round"/>
<path d="M90.3051 253.324V211.694H123.156C124.681 211.694 126.143 211.088 127.221 210.01C128.299 208.932 128.905 207.47 128.905 205.945V184.145C128.905 183.391 128.756 182.645 128.467 181.949C128.178 181.253 127.754 180.62 127.22 180.088C126.686 179.556 126.052 179.135 125.354 178.849C124.657 178.562 123.91 178.416 123.156 178.419H48.1492C47.3929 178.42 46.644 178.57 45.9456 178.86C45.2472 179.151 44.6128 179.576 44.0792 180.112C43.5454 180.648 43.1228 181.284 42.8355 181.984C42.5481 182.684 42.4016 183.434 42.4043 184.19V205.949C42.4043 207.474 43.0101 208.936 44.0882 210.014C45.1665 211.093 46.6287 211.698 48.1534 211.698H81V256.799" stroke="currentColor" stroke-linecap="round" stroke-linejoin="round"/>
<path d="M90.3052 278.731V268.94" stroke="currentColor" stroke-linecap="round" stroke-linejoin="round"/>
<path d="M81 283.688V307.415H90.305V280.713" stroke="currentColor" stroke-linecap="round" stroke-linejoin="round"/>
<path d="M90.3051 231.673H122.509C126.2 231.673 129.74 233.14 132.349 235.749C134.959 238.359 136.426 241.9 136.426 245.59V293.451C136.427 297.145 134.962 300.686 132.352 303.301C129.742 305.913 126.202 307.385 122.509 307.389H48.7965C46.9698 307.391 45.1605 307.033 43.4724 306.335C41.7841 305.639 40.2499 304.614 38.9572 303.324C37.6647 302.034 36.6393 300.501 35.9396 298.814C35.2399 297.126 34.8796 295.318 34.8794 293.491V245.582C34.8794 241.892 36.3456 238.351 38.9555 235.74C41.5654 233.132 45.1054 231.665 48.7965 231.665H80.9998" stroke="currentColor" stroke-linecap="round" stroke-linejoin="round"/>
<path d="M85.8952 276.389C90.7074 276.01 90.8309 270.152 86.1784 270.199C82.6991 270.235 80.2717 270.363 77.5206 270.482C72.9086 270.695 72.9512 276.834 76.752 276.995C79.8081 276.951 82.8599 276.746 85.8952 276.389Z" stroke="currentColor" stroke-linecap="round" stroke-linejoin="round"/>
<path d="M82.3077 256.844C80.6426 256.803 79.4012 256.803 77.8361 256.803C73.4264 256.763 73.2645 262.912 76.9056 263.276C78.7383 263.398 80.5772 263.398 82.4099 263.276" stroke="currentColor" stroke-linecap="round" stroke-linejoin="round"/>
<path d="M86.9878 282.989C91.6382 282.483 91.6403 276.84 87.1496 277.002C83.7917 277.123 81.4452 277.33 78.7751 277.528C74.3248 277.858 74.4866 283.786 78.1682 283.839C81.1209 283.711 84.0649 283.428 86.9878 282.989Z" stroke="currentColor" stroke-linecap="round" stroke-linejoin="round"/>
<path d="M82.4245 263.4C80.6742 263.442 79.156 263.602 77.4398 263.64C72.7553 263.762 72.668 270.001 76.5497 270.241C78.892 270.384 81.3641 270.079 85.8548 269.837C86.5251 269.856 87.1835 269.656 87.7307 269.268C88.2781 268.881 88.685 268.327 88.8901 267.688C89.0954 267.049 89.0879 266.362 88.8688 265.727C88.6497 265.095 88.2311 264.547 87.6753 264.173" stroke="currentColor" stroke-linecap="round" stroke-linejoin="round"/>
<path d="M136.426 260.768C134.12 261.051 111.585 261.62 99.61 261.456C96.8994 261.417 97.1336 257.093 96.416 255.994C94.4996 253.058 93.9077 253.075 88.1628 253.439C81.4066 253.865 82.0285 254.167 82.5396 265.738C82.6652 268.57 87.5967 268.893 88.5272 259.912C87.7585 266.83 90.9141 271.564 95.5666 273.06" stroke="currentColor" stroke-linecap="round" stroke-linejoin="round"/>
<path d="M136.426 284.961C130.6 284.799 105.517 284.637 90.3052 284.354" stroke="currentColor" stroke-linecap="round" stroke-linejoin="round"/>
<path d="M54.7435 189.607L56.5236 193.207L60.4883 193.774L57.6159 196.565L58.3037 200.528L54.7435 198.667L51.2237 200.528L51.871 196.565L49.0391 193.774L53.0038 193.207L54.7435 189.607Z" stroke="currentColor" stroke-linecap="round" stroke-linejoin="round"/>
<path d="M70.198 189.607L71.9781 193.207L75.9428 193.774L73.0704 196.565L73.7582 200.528L70.198 198.667L66.6782 200.528L67.3256 196.565L64.4531 193.774L68.4179 193.207L70.198 189.607Z" stroke="currentColor" stroke-linecap="round" stroke-linejoin="round"/>
<path d="M85.6526 189.607L87.4327 193.207L91.3974 193.774L88.525 196.565L89.2128 200.528L85.6526 198.667L82.0924 200.528L82.7801 196.565L79.9077 193.774L83.8725 193.207L85.6526 189.607Z" stroke="currentColor" stroke-linecap="round" stroke-linejoin="round"/>
<path d="M101.107 189.607L102.887 193.207L106.852 193.774L103.98 196.565L104.627 200.528L101.107 198.667L97.547 200.528L98.2347 196.565L95.3623 193.774L99.3271 193.207L101.107 189.607Z" stroke="currentColor" stroke-linecap="round" stroke-linejoin="round"/>
<path d="M116.561 189.607L118.301 193.207L122.266 193.774L119.393 196.565L120.081 200.528L116.561 198.667L113.001 200.528L113.689 196.565L110.816 193.774L114.781 193.207L116.561 189.607Z" stroke="currentColor" stroke-linecap="round" stroke-linejoin="round"/>
<path d="M337.372 140.29C332.558 140.122 332.153 134.302 336.806 134.141C340.285 134.019 342.712 134.06 345.504 134.06C350.116 134.06 350.356 140.235 346.556 140.533C344.25 140.718 341.822 140.445 337.372 140.29Z" stroke="currentColor" stroke-linecap="round" stroke-linejoin="round"/>
<path d="M337.776 146.561C333.126 146.052 333.124 140.411 337.614 140.573C340.972 140.695 341.377 140.658 344.002 140.856C348.452 141.189 348.291 147.112 344.609 147.168C342.32 147.131 340.035 146.928 337.776 146.561Z" stroke="currentColor" stroke-linecap="round" stroke-linejoin="round"/>
<path d="M321.715 137.296C328.431 138.148 333.164 129.286 330.332 123.015C330.332 123.015 330.009 117.715 328.876 109.624C327.743 101.533 323.293 100.966 323.414 102.908C323.536 104.85 322.039 115.569 320.421 118.727C318.681 122.123 313.381 122.191 310.549 122.206C302.377 122.246 276.08 120.628 276.08 120.628" stroke="currentColor" stroke-linecap="round" stroke-linejoin="round"/>
<path d="M276.323 148.988C284.455 148.745 338.1 147.815 344.047 147.208" stroke="currentColor" stroke-linecap="round" stroke-linejoin="round"/>
<path d="M337.898 127.587C333.245 127.985 332.148 122.457 336.603 121.761C339.923 121.241 342.267 120.988 344.937 120.669C349.387 120.136 350.35 125.962 346.717 126.737C343.794 127.171 340.851 127.455 337.898 127.587Z" stroke="currentColor" stroke-linecap="round" stroke-linejoin="round"/>
<path d="M337.129 134.06C332.445 134.102 331.789 128.479 336.32 128.153C339.678 127.91 344.624 127.755 347.284 127.668C351.734 127.519 352.262 133.434 348.578 133.857C346.356 134.113 341.418 134.019 337.129 134.06Z" stroke="currentColor" stroke-linecap="round" stroke-linejoin="round"/>
<path d="M329.645 115.773C330.17 121.963 330.454 121.522 344.937 120.671" stroke="currentColor" stroke-linecap="round" stroke-linejoin="round"/>
<path d="M363.709 95.1C367.399 95.1 370.94 96.5662 373.551 99.1763C376.159 101.786 377.626 105.326 377.626 109.017V146.197C377.628 149.89 376.161 153.432 373.553 156.046C370.942 158.659 367.401 160.129 363.709 160.133H289.997C288.17 160.136 286.36 159.779 284.669 159.082C282.981 158.385 281.446 157.362 280.151 156.072C278.856 154.781 277.83 153.249 277.127 151.561C276.425 149.874 276.063 148.065 276.061 146.237V109.026C276.058 107.199 276.416 105.39 277.112 103.702C277.811 102.013 278.833 100.479 280.123 99.1867C281.414 97.894 282.947 96.8686 284.633 96.1689C286.322 95.4692 288.129 95.1087 289.956 95.1085L363.709 95.1Z" stroke="currentColor" stroke-linecap="round" stroke-linejoin="round"/>
<path d="M205.283 108.612C206.164 108.211 207.004 107.723 207.789 107.156L205.566 111.444" stroke="currentColor" stroke-linecap="round" stroke-linejoin="round"/>
<path d="M212.765 101.209C212.95 104.67 213.759 108.069 215.152 111.242C216.485 114.365 218.727 117.015 221.585 118.848C224.938 120.877 236.839 120.707 241.57 129.367C245.861 137.213 250.671 162.784 252.855 177.753C253.298 180.794 252.679 183.894 251.101 186.532C249.523 189.169 247.085 191.182 244.198 192.232C229.101 197.547 213.447 201.129 197.541 202.908" stroke="currentColor" stroke-linecap="round" stroke-linejoin="round"/>
<path d="M208.038 90.0023C205.248 83.8529 196.523 77.1754 195.094 93.8862C194.652 97.4368 194.816 101.037 195.579 104.533C197.357 111.087 202.295 110.035 205.289 108.619C205.48 109.551 205.575 110.5 205.572 111.451C205.712 113.244 205.246 115.032 204.248 116.529C203.251 118.025 201.779 119.143 200.07 119.704C197.396 120.626 185.804 121.678 180.125 135.603C178.258 140.173 177.131 145.677 175.027 150.006" stroke="currentColor" stroke-linecap="round" stroke-linejoin="round"/>
<path d="M220.776 151.739L224.093 168.448L192.417 173.626" stroke="currentColor" stroke-linecap="round" stroke-linejoin="round"/>
<path d="M196.342 177.998C194.542 178.375 192.669 178.162 191.001 177.389C188.169 175.568 186.104 170.952 183.881 164.847C180.687 156.143 180.24 159.831 179.876 163.144C179.546 164.792 180.591 174.459 176.599 172.206C171.473 167.511 165.905 163.324 159.971 159.703C152.391 155.766 151.922 157.919 157.705 163.223C159.483 164.843 161.171 166.558 162.763 168.361C164.7 170.537 166.497 172.834 168.143 175.238C170.592 179.173 175.102 186.604 180.604 190.369C186.433 194.364 192.792 197.523 199.497 199.753" stroke="currentColor" stroke-linecap="round" stroke-linejoin="round"/>
<path d="M174.455 184.509C172.027 180.383 164.698 176.099 161.194 172.905C158.802 170.724 154.267 167.581 151.646 165.299C150.996 164.734 151.241 163.195 156.217 165.38C157.322 165.869 161.125 167.564 162.835 168.446" stroke="currentColor" stroke-linecap="round" stroke-linejoin="round"/>
<path d="M160.904 172.645C160.029 172.406 159.277 172.219 158.879 172.129C153.619 170.794 153.617 172.374 154.348 172.817C157.295 174.606 162.326 177.01 165.028 178.764C168.995 181.054 172.758 183.679 176.275 186.613" stroke="currentColor" stroke-linecap="round" stroke-linejoin="round"/>
<path d="M190.441 176.984C191.195 172.849 193.071 172.707 194.973 175.494C198.72 180.968 201.36 195.803 199.018 201.424C197.685 204.633 195.134 202.427 193.146 197.379" stroke="currentColor" stroke-linecap="round" stroke-linejoin="round"/>
<path d="M189.585 195.675L192.134 203.684L154.995 193.531L134.524 134.262L173.201 144.255L179.795 164.969" stroke="currentColor" stroke-linecap="round" stroke-linejoin="round"/>
<path d="M151.516 138.672L149.453 131.187L155.319 132.603L156.654 140.007" stroke="currentColor" stroke-linecap="round" stroke-linejoin="round"/>
<path d="M209.774 99.9143C208.066 101.547 206.061 102.838 203.867 103.717" stroke="currentColor" stroke-linecap="round" stroke-linejoin="round"/>
<path d="M187.563 145.873C187.563 145.873 186.76 157.097 191.285 165.25L195.654 173.098" stroke="currentColor" stroke-linecap="round" stroke-linejoin="round"/>
<path d="M199.998 202.64L168.144 265.38C166.465 268.702 165.514 272.343 165.354 276.061C165.193 279.781 165.827 283.49 167.213 286.943C177.224 311.226 189.453 334.535 203.746 356.572C221.221 354.144 235.987 347.024 244.726 331.853C229.474 310.613 216.689 290.465 207.791 272.138L228.658 237.872C237.193 251.005 246.932 263.317 257.747 274.647C261.501 278.624 266.613 281.045 272.07 281.426C277.526 281.81 282.928 280.125 287.199 276.71C307.945 260.153 327.818 242.888 347.561 225.607C345.955 218.344 342.55 211.6 337.661 205.995C332.77 200.39 326.551 196.104 319.571 193.529L276.961 235.129C265.889 201.98 253.222 192.882 247.639 190.414" stroke="currentColor" stroke-linecap="round" stroke-linejoin="round"/>
<path d="M222.191 248.469L221.625 225.247C223.737 229.582 226.086 233.796 228.664 237.87" stroke="currentColor" stroke-linecap="round" stroke-linejoin="round"/>
<path d="M326.853 189.524C338.99 188.476 375.12 185.582 387.112 189.479" stroke="currentColor" stroke-linecap="round" stroke-linejoin="round"/>
<path d="M322.281 194.704L331.789 183.902C351.127 180.625 382.4 179.938 393.112 185.237C381.376 193.816 366.283 203.107 352.696 207.932C349.04 208.981 345.593 210.65 342.501 212.867" stroke="currentColor" stroke-linecap="round" stroke-linejoin="round"/>
<path d="M233.964 344.554L242.582 357.379C240.802 376.919 233.438 407.343 225.547 416.284C219.658 401.928 215.765 386.831 213.977 371.417C213.578 366.562 213.251 362.072 210.621 357.985L209.13 355.643" stroke="currentColor" stroke-linecap="round" stroke-linejoin="round"/>
<path d="M156.209 137.458C156.209 137.458 162.682 135.597 167.982 142.92" stroke="currentColor" stroke-linecap="round" stroke-linejoin="round"/>
<path d="M193.753 121.599C193.294 121.892 192.942 122.323 192.747 122.831C192.552 123.339 192.525 123.895 192.67 124.419C192.815 124.944 193.124 125.407 193.552 125.743C193.98 126.079 194.504 126.268 195.047 126.284C195.499 126.281 195.941 126.156 196.326 125.921C196.711 125.685 197.024 125.349 197.232 124.949C195.771 124.195 194.561 123.031 193.753 121.599Z" stroke="currentColor" stroke-linecap="round" stroke-linejoin="round"/>
<path d="M197.11 125.968C197.109 126.548 197.311 127.109 197.682 127.554C198.053 127.998 198.569 128.298 199.14 128.4C199.71 128.502 200.298 128.399 200.8 128.11C201.302 127.821 201.686 127.364 201.884 126.82C200.325 126.291 198.798 125.669 197.313 124.959C197.169 125.276 197.1 125.621 197.11 125.968Z" stroke="currentColor" stroke-linecap="round" stroke-linejoin="round"/>
<path d="M201.763 127.55C201.762 128.16 201.984 128.749 202.389 129.205C202.794 129.661 203.353 129.952 203.959 130.022C204.565 130.092 205.175 129.936 205.673 129.585C206.172 129.233 206.523 128.711 206.661 128.117C205.044 127.804 203.449 127.385 201.887 126.863C201.803 127.082 201.761 127.316 201.763 127.55Z" stroke="currentColor" stroke-linecap="round" stroke-linejoin="round"/>
<path d="M206.497 128.477C206.474 129.124 206.708 129.754 207.148 130.229C207.588 130.704 208.198 130.986 208.845 131.012C209.492 131.039 210.123 130.809 210.601 130.371C211.078 129.934 211.364 129.326 211.394 128.679C209.763 128.599 208.141 128.396 206.541 128.072C206.548 128.189 206.497 128.355 206.497 128.477Z" stroke="currentColor" stroke-linecap="round" stroke-linejoin="round"/>
<path d="M211.433 128.679C211.432 129.316 211.683 129.927 212.129 130.381C212.576 130.835 213.183 131.096 213.82 131.106C214.152 131.11 214.479 131.044 214.786 130.912C215.091 130.78 215.363 130.586 215.589 130.342C215.812 130.098 215.985 129.81 216.091 129.495C216.198 129.181 216.236 128.848 216.206 128.517C214.622 128.692 213.026 128.746 211.433 128.679Z" stroke="currentColor" stroke-linecap="round" stroke-linejoin="round"/>
<path d="M218.753 130.531C219.136 130.53 219.513 130.44 219.856 130.269C220.198 130.098 220.497 129.85 220.729 129.545C220.959 129.239 221.116 128.885 221.189 128.508C221.259 128.132 221.242 127.745 221.14 127.376C219.577 127.906 217.963 128.272 216.325 128.468C216.421 129.043 216.719 129.565 217.162 129.943C217.607 130.32 218.169 130.528 218.753 130.531Z" stroke="currentColor" stroke-linecap="round" stroke-linejoin="round"/>
<path d="M223.405 128.962C223.837 128.963 224.261 128.85 224.634 128.635C225.009 128.42 225.319 128.111 225.537 127.738C225.754 127.366 225.869 126.943 225.871 126.511C225.873 126.08 225.762 125.656 225.549 125.281C224.144 126.149 222.654 126.867 221.099 127.425C221.293 127.877 221.614 128.264 222.023 128.537C222.432 128.81 222.913 128.958 223.405 128.962Z" stroke="currentColor" stroke-linecap="round" stroke-linejoin="round"/>
<path d="M228.543 121.194C229.114 121.369 229.601 121.741 229.921 122.244C230.24 122.747 230.37 123.347 230.287 123.936C230.206 124.526 229.914 125.067 229.469 125.462C229.022 125.857 228.452 126.081 227.855 126.092C227.436 126.127 227.014 126.072 226.616 125.933C226.218 125.794 225.856 125.572 225.549 125.283C226.899 124.216 227.934 122.803 228.543 121.194Z" stroke="currentColor" stroke-linecap="round" stroke-linejoin="round"/>
<path d="M303.59 58.3652V79.7668" stroke="currentColor" stroke-linecap="round" stroke-linejoin="round"/>
<path d="M314.311 69.0458H292.91" stroke="currentColor" stroke-linecap="round" stroke-linejoin="round"/>
<path d="M215.112 99.3075C218.005 103.745 222.394 100.036 222.394 92.9196C222.394 85.8396 217.978 82.0985 215.112 86.5317C214.06 88.4964 213.509 90.6908 213.509 92.9196C213.509 95.1483 214.06 97.3426 215.112 99.3075Z" stroke="currentColor" stroke-linecap="round" stroke-linejoin="round"/>
<path d="M217.944 84.5812H212.241C209.765 84.5812 207.785 88.3245 207.791 92.9153C207.797 97.506 209.773 101.22 212.241 101.22H217.584" stroke="currentColor" stroke-linecap="round" stroke-linejoin="round"/>
<path d="M194.036 85.0667C192.094 85.1476 190.274 88.991 190.514 93.5626C190.759 97.9319 192.782 101.441 195.086 101.613C194.443 96.1016 194.469 90.532 195.165 85.0262L194.036 85.0667Z" stroke="currentColor" stroke-linecap="round" stroke-linejoin="round"/>
<path d="M194.724 84.7834C195.124 82.494 196.35 80.4309 198.169 78.9845C199.988 77.5381 202.274 76.809 204.595 76.9348C206.933 76.8625 209.229 77.5766 211.113 78.9628C212.998 80.349 214.362 82.3273 214.99 84.5812" stroke="currentColor" stroke-linecap="round" stroke-linejoin="round"/>
<path d="M113.365 40.1597C112.938 39.7317 112.43 39.3923 111.871 39.1606C111.312 38.9289 110.713 38.8097 110.108 38.8097C109.504 38.8097 108.905 38.9289 108.346 39.1606C107.787 39.3923 107.279 39.7317 106.852 40.1597L105.678 41.3734L104.505 40.1597C103.641 39.296 102.47 38.8108 101.248 38.8108C100.027 38.8108 98.8553 39.296 97.9917 40.1597C97.1278 41.0233 96.6426 42.1949 96.6426 43.4164C96.6426 44.638 97.1278 45.8096 97.9917 46.6732L105.678 54.36L113.365 46.6732C113.793 46.2456 114.133 45.738 114.364 45.1791C114.596 44.6203 114.715 44.0214 114.715 43.4164C114.715 42.8115 114.596 42.2125 114.364 41.6538C114.133 41.0949 113.793 40.5872 113.365 40.1597Z" stroke="currentColor" stroke-linecap="round" stroke-linejoin="round"/>
<path d="M127.977 74.6948L144.076 81.0614L137.846 65.0917C141.717 59.5719 143.768 52.9807 143.712 46.2389C143.491 26.9304 126.231 11.5164 105.153 11.7165C84.0343 11.9295 67.1021 27.699 67.2916 46.9564C67.5045 69.7399 90.9992 85.6735 114.505 80.4141C119.309 79.3535 123.876 77.4146 127.977 74.6948Z" stroke="currentColor" stroke-linecap="round" stroke-linejoin="round"/>
<path d="M360.756 340.306L345.868 338.162L339.233 324.69L332.598 338.162L317.71 340.306L328.471 350.825L325.923 365.632L339.233 358.633L352.543 365.632L349.994 350.825L360.756 340.306Z" stroke="currentColor" stroke-linecap="round" stroke-linejoin="round"/>
<path d="M222.394 91.6611C241.283 92.9511 259.638 98.4973 276.08 107.884" stroke="currentColor" stroke-linecap="round" stroke-linejoin="round"/>
<path d="M93.1777 178.441C100.288 156.85 113.072 137.569 130.192 122.615C147.312 107.661 168.137 97.5848 190.487 93.4412" stroke="currentColor" stroke-linecap="round" stroke-linejoin="round"/>
<path d="M333.245 201.661L310.185 223.224" stroke="currentColor" stroke-linecap="round" stroke-linejoin="round"/>
<path d="M231.496 346.132L214.343 319.592" stroke="currentColor" stroke-linecap="round" stroke-linejoin="round"/>
<path d="M233.479 202.591C236.594 204.856 240.137 206.462 243.893 207.311C247.649 208.159 251.54 208.233 255.326 207.527" stroke="currentColor" stroke-linecap="round" stroke-linejoin="round"/>
<path d="M101.107 326.834V331.544" stroke="currentColor" stroke-linecap="round" stroke-linejoin="round"/>
<path d="M110.269 335.998H105.559" stroke="currentColor" stroke-linecap="round" stroke-linejoin="round"/>
<path d="M101.107 345.161V340.451" stroke="currentColor" stroke-linecap="round" stroke-linejoin="round"/>
<path d="M91.9424 335.998H96.6545" stroke="currentColor" stroke-linecap="round" stroke-linejoin="round"/>
<path d="M105.559 335.998C104.974 335.998 104.395 335.883 103.854 335.66C103.313 335.436 102.822 335.108 102.409 334.695C101.995 334.28 101.667 333.79 101.444 333.249C101.22 332.708 101.106 332.129 101.107 331.544C101.108 332.129 100.993 332.708 100.77 333.249C100.547 333.79 100.219 334.282 99.8052 334.695C99.3917 335.108 98.9003 335.438 98.3597 335.662C97.819 335.885 97.2394 335.998 96.6543 335.998C97.2392 335.998 97.8186 336.111 98.3592 336.335C98.8996 336.558 99.3909 336.886 99.8046 337.301C100.218 337.714 100.546 338.204 100.77 338.745C100.993 339.286 101.108 339.865 101.107 340.451C101.106 339.865 101.221 339.286 101.444 338.745C101.668 338.206 101.996 337.714 102.41 337.301C102.823 336.888 103.314 336.56 103.855 336.337C104.395 336.113 104.974 335.998 105.559 335.998Z" stroke="currentColor" stroke-linecap="round" stroke-linejoin="round"/>
<path d="M238.415 351.148C236.319 363.16 229.846 398.821 222.999 409.41" stroke="currentColor" stroke-linecap="round" stroke-linejoin="round"/>
<defs>
<linearGradient id="paint0_linear_85_30222" x1="256.47" y1="190.414" x2="256.47" y2="356.612" gradientUnits="userSpaceOnUse">
<stop stop-color="#C6D7FF"/>
<stop offset="1" stop-color="#4075ED"/>
</linearGradient>
<linearGradient id="paint1_linear_85_30222" x1="105.683" y1="11.7146" x2="105.683" y2="81.4223" gradientUnits="userSpaceOnUse">
<stop stop-color="#C6D7FF"/>
<stop offset="1" stop-color="#4075ED"/>
</linearGradient>
<linearGradient id="paint2_linear_85_30222" x1="54.7637" y1="189.607" x2="54.7637" y2="200.528" gradientUnits="userSpaceOnUse">
<stop stop-color="#C6D7FF"/>
<stop offset="1" stop-color="#4075ED"/>
</linearGradient>
<linearGradient id="paint3_linear_85_30222" x1="70.198" y1="189.607" x2="70.198" y2="200.528" gradientUnits="userSpaceOnUse">
<stop stop-color="#C6D7FF"/>
<stop offset="1" stop-color="#4075ED"/>
</linearGradient>
<linearGradient id="paint4_linear_85_30222" x1="85.6521" y1="189.607" x2="85.6521" y2="200.528" gradientUnits="userSpaceOnUse">
<stop stop-color="#C6D7FF"/>
<stop offset="1" stop-color="#4075ED"/>
</linearGradient>
<linearGradient id="paint5_linear_85_30222" x1="101.107" y1="189.607" x2="101.107" y2="200.528" gradientUnits="userSpaceOnUse">
<stop stop-color="#C6D7FF"/>
<stop offset="1" stop-color="#4075ED"/>
</linearGradient>
<linearGradient id="paint6_linear_85_30222" x1="116.541" y1="189.607" x2="116.541" y2="200.528" gradientUnits="userSpaceOnUse">
<stop stop-color="#C6D7FF"/>
<stop offset="1" stop-color="#4075ED"/>
</linearGradient>
<linearGradient id="paint7_linear_85_30222" x1="339.233" y1="324.69" x2="339.233" y2="365.632" gradientUnits="userSpaceOnUse">
<stop stop-color="#C6D7FF"/>
<stop offset="1" stop-color="#4075ED"/>
</linearGradient>
</defs>
</svg>
